<svg width="100" height="78" viewBox="0 0 100 78" fill="none" xmlns="http://www.w3.org/2000/svg">
<path d="M99.3019 51.614L99.0952 27.7354C97.5708 25.7545 95.5974 20.6641 94.0306 19.509C92.8929 21.4157 91.3883 26.2388 89.485 27.0791C89.3049 27.6203 89.0851 61.9682 89.3341 63.4726C89.7552 66.0198 91.2638 68.6874 92.4147 70.9779C93.0213 72.1834 93.5736 73.5635 94.5418 74.5162C96.4543 73.0117 98.8952 66.1733 99.2409 63.6394C99.7628 59.8074 99.3416 55.4818 99.3019 51.614ZM96.7854 29.1909C97.1708 29.4265 97.1072 30.1979 97.1562 30.6253C95.6517 30.6067 92.9498 31.2339 91.7061 30.3739C91.3446 30.1238 91.4148 29.3682 91.3724 28.9461C92.8756 28.9779 95.4795 28.3957 96.7854 29.1909ZM95.2596 68.9812C95.159 69.2802 94.959 69.6282 94.8212 69.9141L94.3988 69.7804C93.2809 68.3818 92.6161 66.4909 91.8863 64.8528C93.5286 64.8144 95.1762 64.8263 96.8185 64.8171L95.2596 68.9812ZM97.1218 62.4855L96.653 62.7449L91.4333 62.7383L91.4399 49.0999C91.4426 46.5978 91.2757 43.9579 91.5843 41.4835L92.0386 41.1647L97.2159 41.1514L97.2675 54.9684C97.2741 57.3965 97.5085 60.0932 97.1218 62.4855ZM97.1549 39.0912C95.4795 39.0673 93.5193 39.5305 91.9591 38.8795C91.375 38.1199 91.5366 37.6224 91.5326 36.6816C93.1352 36.6498 95.1762 36.2555 96.6543 36.8404C97.3086 37.6356 97.1417 38.0842 97.1549 39.0912ZM91.6969 34.2257C91.3234 33.9929 91.2956 33.224 91.2028 32.8059C92.8279 32.7265 95.4477 32.1801 96.894 33.0269C97.2874 33.2571 97.3417 34.0286 97.4529 34.4586C95.8278 34.4811 93.0942 35.0991 91.6969 34.2257ZM50.5025 11.5128C50.08 10.838 50.1754 10.5918 50.2058 9.81379C53.603 9.77542 69.5203 9.08074 71.5957 10.0546C71.989 10.6792 71.8858 10.834 71.8142 11.5816C68.3031 11.9627 53.6679 12.1863 50.5025 11.5128ZM71.8897 51.6736C72.2831 52.363 72.1109 52.3683 71.9215 53.0974C69.1415 53.313 52.1766 53.7365 50.6005 52.8724C50.4124 52.1645 50.4456 52.011 50.6283 51.2938C54.3646 51.2197 69.3905 50.615 71.8897 51.6736ZM50.5105 19.8676C50.0429 19.3198 50.1436 18.9427 50.0906 18.248C54.2971 18.0204 68.1853 17.6102 71.7546 18.3432C72.2209 18.9731 72.0897 19.2814 72.0897 20.0343C68.213 20.2368 64.2503 20.0727 60.3644 20.074C57.1751 20.0753 53.6494 20.3836 50.5105 19.8676ZM72.0884 27.0605C72.242 27.7711 72.0977 27.8386 71.8301 28.4856C68.3587 28.6921 52.8282 29.1605 50.3846 28.2104C50.1224 27.4998 50.2019 27.341 50.3635 26.5881C53.4666 26.5709 70.5653 26.0562 72.0884 27.0605ZM72.3083 44.8564C68.8435 45.2997 65.1152 45.0681 61.6239 45.0748C58.0929 45.0814 54.4123 45.3023 50.8998 44.9318C50.2985 44.4515 50.3052 43.9209 50.1038 43.1997C53.4547 42.8835 57.032 43.119 60.4067 43.119C64.1284 43.1177 68.0382 42.8332 71.7215 43.2752C72.303 43.7859 72.2076 44.1061 72.3083 44.8564ZM71.744 35.1599C71.9493 35.2697 72.0977 35.4616 72.2751 35.6111L72.3268 36.7068C68.8938 37.1858 54.1434 37.2254 50.68 36.7848C50.1158 36.11 50.186 35.8599 50.1131 35.0051C52.5104 34.8754 70.6712 34.5843 71.744 35.1599ZM36.2567 9.96731C33.9284 9.17867 17.6548 9.74631 13.8974 9.75161C13.9106 10.5072 13.8126 10.9465 14.2258 11.5922C16.7039 12.0064 19.4415 11.7722 21.9567 11.7735L36.372 11.7867C36.4726 11.0007 36.5971 10.699 36.2567 9.96731ZM36.523 26.9481C35.0237 25.9226 17.1145 26.3923 13.9556 26.4717C13.8033 27.3424 13.6179 27.5276 14.1239 28.2858C16.6522 28.872 19.6879 28.5531 22.2957 28.5505L36.3216 28.5558C36.6064 27.8135 36.7335 27.6997 36.523 26.9481ZM36.4898 18.3975C33.3602 17.4104 21.5209 18.1302 17.4178 18.1051C16.047 18.0984 14.7503 17.9066 13.7159 18.9916C13.6404 19.071 13.5769 19.161 13.508 19.2456L13.5821 19.5897C15.9277 20.639 30.1828 20.1388 33.4754 20.1468C34.5654 20.1282 35.6899 20.3122 36.609 19.7101C36.7892 19.0022 36.8408 19.0273 36.4898 18.3975ZM36.7256 43.6245C35.5694 42.6083 17.4019 43.0767 14.3887 43.0634C14.0179 43.6562 13.9398 43.7859 13.9053 44.4767C14.7371 45.3142 16.484 45.0933 17.6336 45.0986L36.6104 45.1039C36.8713 44.4065 36.9004 44.3417 36.7256 43.6245ZM36.7335 35.3928C35.1455 34.2628 17.0787 34.7272 14.1358 34.8304C13.9133 35.5728 13.8033 35.7064 14.0457 36.4262C15.5344 37.3062 33.5827 36.8986 36.3627 36.7544C36.6805 36.1616 36.7958 36.0504 36.7335 35.3928ZM36.4766 51.3177C33.9284 50.8876 31.1589 51.1271 28.5749 51.1364L13.9133 51.192C13.9133 51.9687 13.7702 52.3775 14.2431 53.0272C17.035 53.4335 20.0746 53.1913 22.8997 53.1768C27.5869 53.153 32.2821 53.1913 36.9666 53.1C36.9044 52.3087 36.9918 51.9396 36.4766 51.3177ZM36.4766 51.3177C33.9284 50.8876 31.1589 51.1271 28.5749 51.1364L13.9133 51.192C13.9133 51.9687 13.7702 52.3775 14.2431 53.0272C17.035 53.4335 20.0746 53.1913 22.8997 53.1768C27.5869 53.153 32.2821 53.1913 36.9666 53.1C36.9044 52.3087 36.9918 51.9396 36.4766 51.3177ZM36.7335 35.3928C35.1455 34.2628 17.0787 34.7272 14.1358 34.8304C13.9133 35.5728 13.8033 35.7064 14.0457 36.4262C15.5344 37.3062 33.5827 36.8986 36.3627 36.7544C36.6805 36.1616 36.7958 36.0504 36.7335 35.3928ZM36.7256 43.6245C35.5694 42.6083 17.4019 43.0767 14.3887 43.0634C14.0179 43.6562 13.9398 43.7859 13.9053 44.4767C14.7371 45.3142 16.484 45.0933 17.6336 45.0986L36.6104 45.1039C36.8713 44.4065 36.9004 44.3417 36.7256 43.6245ZM36.4898 18.3975C33.3602 17.4104 21.5209 18.1302 17.4178 18.1051C16.047 18.0984 14.7503 17.9066 13.7159 18.9916C13.6404 19.071 13.5769 19.161 13.508 19.2456L13.5821 19.5897C15.9277 20.639 30.1828 20.1388 33.4754 20.1468C34.5654 20.1282 35.6899 20.3122 36.609 19.7101C36.7892 19.0022 36.8408 19.0273 36.4898 18.3975ZM36.523 26.9481C35.0237 25.9226 17.1145 26.3923 13.9556 26.4717C13.8033 27.3424 13.6179 27.5276 14.1239 28.2858C16.6522 28.872 19.6879 28.5531 22.2957 28.5505L36.3216 28.5558C36.6064 27.8135 36.7335 27.6997 36.523 26.9481ZM36.2567 9.96731C33.9284 9.17867 17.6548 9.74631 13.8974 9.75161C13.9106 10.5072 13.8126 10.9465 14.2258 11.5922C16.7039 12.0064 19.4415 11.7722 21.9567 11.7735L36.372 11.7867C36.4726 11.0007 36.5971 10.699 36.2567 9.96731ZM36.2567 9.96731C33.9284 9.17867 17.6548 9.74631 13.8974 9.75161C13.9106 10.5072 13.8126 10.9465 14.2258 11.5922C16.7039 12.0064 19.4415 11.7722 21.9567 11.7735L36.372 11.7867C36.4726 11.0007 36.5971 10.699 36.2567 9.96731ZM36.523 26.9481C35.0237 25.9226 17.1145 26.3923 13.9556 26.4717C13.8033 27.3424 13.6179 27.5276 14.1239 28.2858C16.6522 28.872 19.6879 28.5531 22.2957 28.5505L36.3216 28.5558C36.6064 27.8135 36.7335 27.6997 36.523 26.9481ZM36.4898 18.3975C33.3602 17.4104 21.5209 18.1302 17.4178 18.1051C16.047 18.0984 14.7503 17.9066 13.7159 18.9916C13.6404 19.071 13.5769 19.161 13.508 19.2456L13.5821 19.5897C15.9277 20.639 30.1828 20.1388 33.4754 20.1468C34.5654 20.1282 35.6899 20.3122 36.609 19.7101C36.7892 19.0022 36.8408 19.0273 36.4898 18.3975ZM36.7256 43.6245C35.5694 42.6083 17.4019 43.0767 14.3887 43.0634C14.0179 43.6562 13.9398 43.7859 13.9053 44.4767C14.7371 45.3142 16.484 45.0933 17.6336 45.0986L36.6104 45.1039C36.8713 44.4065 36.9004 44.3417 36.7256 43.6245ZM36.7335 35.3928C35.1455 34.2628 17.0787 34.7272 14.1358 34.8304C13.9133 35.5728 13.8033 35.7064 14.0457 36.4262C15.5344 37.3062 33.5827 36.8986 36.3627 36.7544C36.6805 36.1616 36.7958 36.0504 36.7335 35.3928ZM36.4766 51.3177C33.9284 50.8876 31.1589 51.1271 28.5749 51.1364L13.9133 51.192C13.9133 51.9687 13.7702 52.3775 14.2431 53.0272C17.035 53.4335 20.0746 53.1913 22.8997 53.1768C27.5869 53.153 32.2821 53.1913 36.9666 53.1C36.9044 52.3087 36.9918 51.9396 36.4766 51.3177ZM36.4766 51.3177C33.9284 50.8876 31.1589 51.1271 28.5749 51.1364L13.9133 51.192C13.9133 51.9687 13.7702 52.3775 14.2431 53.0272C17.035 53.4335 20.0746 53.1913 22.8997 53.1768C27.5869 53.153 32.2821 53.1913 36.9666 53.1C36.9044 52.3087 36.9918 51.9396 36.4766 51.3177ZM36.7335 35.3928C35.1455 34.2628 17.0787 34.7272 14.1358 34.8304C13.9133 35.5728 13.8033 35.7064 14.0457 36.4262C15.5344 37.3062 33.5827 36.8986 36.3627 36.7544C36.6805 36.1616 36.7958 36.0504 36.7335 35.3928ZM36.7256 43.6245C35.5694 42.6083 17.4019 43.0767 14.3887 43.0634C14.0179 43.6562 13.9398 43.7859 13.9053 44.4767C14.7371 45.3142 16.484 45.0933 17.6336 45.0986L36.6104 45.1039C36.8713 44.4065 36.9004 44.3417 36.7256 43.6245ZM36.4898 18.3975C33.3602 17.4104 21.5209 18.1302 17.4178 18.1051C16.047 18.0984 14.7503 17.9066 13.7159 18.9916C13.6404 19.071 13.5769 19.161 13.508 19.2456L13.5821 19.5897C15.9277 20.639 30.1828 20.1388 33.4754 20.1468C34.5654 20.1282 35.6899 20.3122 36.609 19.7101C36.7892 19.0022 36.8408 19.0273 36.4898 18.3975ZM36.523 26.9481C35.0237 25.9226 17.1145 26.3923 13.9556 26.4717C13.8033 27.3424 13.6179 27.5276 14.1239 28.2858C16.6522 28.872 19.6879 28.5531 22.2957 28.5505L36.3216 28.5558C36.6064 27.8135 36.7335 27.6997 36.523 26.9481ZM36.2567 9.96731C33.9284 9.17867 17.6548 9.74631 13.8974 9.75161C13.9106 10.5072 13.8126 10.9465 14.2258 11.5922C16.7039 12.0064 19.4415 11.7722 21.9567 11.7735L36.372 11.7867C36.4726 11.0007 36.5971 10.699 36.2567 9.96731ZM36.2567 9.96731C33.9284 9.17867 17.6548 9.74631 13.8974 9.75161C13.9106 10.5072 13.8126 10.9465 14.2258 11.5922C16.7039 12.0064 19.4415 11.7722 21.9567 11.7735L36.372 11.7867C36.4726 11.0007 36.5971 10.699 36.2567 9.96731ZM36.523 26.9481C35.0237 25.9226 17.1145 26.3923 13.9556 26.4717C13.8033 27.3424 13.6179 27.5276 14.1239 28.2858C16.6522 28.872 19.6879 28.5531 22.2957 28.5505L36.3216 28.5558C36.6064 27.8135 36.7335 27.6997 36.523 26.9481ZM36.4898 18.3975C33.3602 17.4104 21.5209 18.1302 17.4178 18.1051C16.047 18.0984 14.7503 17.9066 13.7159 18.9916C13.6404 19.071 13.5769 19.161 13.508 19.2456L13.5821 19.5897C15.9277 20.639 30.1828 20.1388 33.4754 20.1468C34.5654 20.1282 35.6899 20.3122 36.609 19.7101C36.7892 19.0022 36.8408 19.0273 36.4898 18.3975ZM36.7256 43.6245C35.5694 42.6083 17.4019 43.0767 14.3887 43.0634C14.0179 43.6562 13.9398 43.7859 13.9053 44.4767C14.7371 45.3142 16.484 45.0933 17.6336 45.0986L36.6104 45.1039C36.8713 44.4065 36.9004 44.3417 36.7256 43.6245ZM36.7335 35.3928C35.1455 34.2628 17.0787 34.7272 14.1358 34.8304C13.9133 35.5728 13.8033 35.7064 14.0457 36.4262C15.5344 37.3062 33.5827 36.8986 36.3627 36.7544C36.6805 36.1616 36.7958 36.0504 36.7335 35.3928ZM36.4766 51.3177C33.9284 50.8876 31.1589 51.1271 28.5749 51.1364L13.9133 51.192C13.9133 51.9687 13.7702 52.3775 14.2431 53.0272C17.035 53.4335 20.0746 53.1913 22.8997 53.1768C27.5869 53.153 32.2821 53.1913 36.9666 53.1C36.9044 52.3087 36.9918 51.9396 36.4766 51.3177ZM36.4766 51.3177C33.9284 50.8876 31.1589 51.1271 28.5749 51.1364L13.9133 51.192C13.9133 51.9687 13.7702 52.3775 14.2431 53.0272C17.035 53.4335 20.0746 53.1913 22.8997 53.1768C27.5869 53.153 32.2821 53.1913 36.9666 53.1C36.9044 52.3087 36.9918 51.9396 36.4766 51.3177ZM14.1358 34.8304C13.9133 35.5728 13.8033 35.7064 14.0457 36.4262C15.5344 37.3062 33.5827 36.8986 36.3627 36.7544C36.6805 36.1616 36.7958 36.0504 36.7335 35.3928C35.1455 34.2628 17.0787 34.7272 14.1358 34.8304ZM14.3887 43.0634C14.0179 43.6562 13.9398 43.7859 13.9053 44.4767C14.7371 45.3142 16.484 45.0933 17.6336 45.0986L36.6104 45.1039C36.8713 44.4065 36.9004 44.3417 36.7256 43.6245C35.5694 42.6083 17.4019 43.0767 14.3887 43.0634ZM33.4754 20.1468C34.5654 20.1282 35.6899 20.3122 36.609 19.7101C36.7892 19.0022 36.8408 19.0273 36.4898 18.3975C33.3602 17.4104 21.5209 18.1302 17.4178 18.1051C16.047 18.0984 14.7503 17.9066 13.7159 18.9916C13.6404 19.071 13.5769 19.161 13.508 19.2456L13.5821 19.5897C15.9277 20.639 30.1828 20.1388 33.4754 20.1468ZM22.2957 28.5505L36.3216 28.5558C36.6064 27.8135 36.7335 27.6997 36.523 26.9481C35.0237 25.9226 17.1145 26.3923 13.9556 26.4717C13.8033 27.3424 13.6179 27.5276 14.1239 28.2858C16.6522 28.872 19.6879 28.5531 22.2957 28.5505ZM14.2258 11.5922C16.7039 12.0064 19.4415 11.7722 21.9567 11.7735L36.372 11.7867C36.4726 11.0007 36.5971 10.699 36.2567 9.96731C33.9284 9.17867 17.6548 9.74631 13.8974 9.75161C13.9106 10.5072 13.8126 10.9465 14.2258 11.5922ZM85.1859 64.6821L85.1461 47.88L85.1157 21.1418C85.0998 15.7299 85.2097 10.2597 84.8945 4.85705C83.0668 4.8372 81.2403 4.81076 79.4126 4.84252L79.3225 0.862286C73.8685 0.445475 68.2594 0.653218 62.7841 0.6294C58.5022 0.610875 53.8798 0.252273 49.6443 0.815961C47.0894 1.1547 44.7955 1.92219 42.4194 2.89078C40.699 1.9341 39.1692 1.33337 37.209 1.01183C32.8383 0.295969 28.1326 0.604276 23.7063 0.613538C17.9065 0.625447 12.0908 0.557963 6.2924 0.679699C5.84474 2.04922 5.84606 3.3486 5.82222 4.77106C4.32824 4.74327 2.74022 4.56464 1.31644 5.0701C0.687323 5.73965 0.752209 6.14983 0.708502 7.07078C0.244945 16.8123 0.699253 26.7827 0.697929 36.5466C0.697929 49.2693 0.337661 62.0992 0.713805 74.8113L0.729714 75.3022C8.40622 75.4901 16.1066 75.3392 23.787 75.318C27.665 75.3074 31.7523 75.0441 35.5932 75.5483C38.2659 75.8989 40.7731 76.6942 43.3333 77.5C58.3976 72.2058 63.5497 74.7186 78.4603 75.1288C80.1318 75.3048 83.6919 76.0577 85.0826 75.1394C85.4137 71.7057 85.2031 68.1304 85.1859 64.6821ZM44.1253 4.92189C46.553 3.49811 48.835 2.949 51.6084 2.7214C60.1564 2.62349 68.7879 2.58908 77.3292 2.85505C77.6603 10.4953 77.4206 18.2374 77.4339 25.8869L77.5027 67.6183L67.1456 67.0705C58.2558 66.3718 52.4653 67.0295 44.1147 70.3084C43.8604 48.5257 44.0538 26.7072 44.1253 4.92189ZM22.4321 2.66716C26.5128 2.66187 30.6914 2.47792 34.7575 2.80872C36.707 2.96619 40.5956 3.32215 41.6499 5.20772C42.1519 6.10486 42.3028 65.3979 41.8697 69.8783L41.5095 70.1191C31.3973 65.2987 18.9316 67.1472 8.12144 68.002L7.93868 2.71213C12.7531 2.55202 17.6138 2.67246 22.4321 2.66716ZM52.8455 72.6491C49.5542 73.1797 46.4497 74.2211 43.3028 75.2836C41.0181 74.5294 38.7546 73.8466 36.364 73.5172C32.0423 72.9217 27.5048 73.1665 23.1487 73.2022C16.3781 73.2565 9.60749 73.365 2.8369 73.2909C2.64221 65.7393 2.8144 58.1401 2.81837 50.5819L2.86869 6.98743C3.84216 6.96626 4.8673 6.84187 5.76395 7.27191C6.13877 9.3692 5.92155 11.7854 5.92553 13.921L5.96394 25.7175L6.18909 70.1496C19.725 69.9829 30.0411 66.5968 43.0247 73.2155C56.6188 66.6695 65.2953 69.5674 79.4365 69.6322C80.0126 62.7899 79.6073 55.5956 79.6126 48.7215L79.5305 7.04432C80.6775 6.99272 81.9397 6.76118 82.9436 7.36324L83.0707 8.29081L83.1025 73.455C75.1134 72.5248 60.5816 71.4027 52.8455 72.6491ZM28.5749 51.1364L13.9133 51.192C13.9133 51.9687 13.7702 52.3775 14.2431 53.0272C17.035 53.4335 20.0746 53.1913 22.8997 53.1768C27.5869 53.153 32.2821 53.1913 36.9666 53.1C36.9044 52.3087 36.9918 51.9396 36.4766 51.3177C33.9284 50.8876 31.1589 51.1271 28.5749 51.1364ZM14.1358 34.8304C13.9133 35.5728 13.8033 35.7064 14.0457 36.4262C15.5344 37.3062 33.5827 36.8986 36.3627 36.7544C36.6805 36.1616 36.7958 36.0504 36.7335 35.3928C35.1455 34.2628 17.0787 34.7272 14.1358 34.8304ZM14.3887 43.0634C14.0179 43.6562 13.9398 43.7859 13.9053 44.4767C14.7371 45.3142 16.484 45.0933 17.6336 45.0986L36.6104 45.1039C36.8713 44.4065 36.9004 44.3417 36.7256 43.6245C35.5694 42.6083 17.4019 43.0767 14.3887 43.0634ZM33.4754 20.1468C34.5654 20.1282 35.6899 20.3122 36.609 19.7101C36.7892 19.0022 36.8408 19.0273 36.4898 18.3975C33.3602 17.4104 21.5209 18.1302 17.4178 18.1051C16.047 18.0984 14.7503 17.9066 13.7159 18.9916C13.6404 19.071 13.5769 19.161 13.508 19.2456L13.5821 19.5897C15.9277 20.639 30.1828 20.1388 33.4754 20.1468ZM22.2957 28.5505L36.3216 28.5558C36.6064 27.8135 36.7335 27.6997 36.523 26.9481C35.0237 25.9226 17.1145 26.3923 13.9556 26.4717C13.8033 27.3424 13.6179 27.5276 14.1239 28.2858C16.6522 28.872 19.6879 28.5531 22.2957 28.5505ZM14.2258 11.5922C16.7039 12.0064 19.4415 11.7722 21.9567 11.7735L36.372 11.7867C36.4726 11.0007 36.5971 10.699 36.2567 9.96731C33.9284 9.17867 17.6548 9.74631 13.8974 9.75161C13.9106 10.5072 13.8126 10.9465 14.2258 11.5922ZM36.2567 9.96731C33.9284 9.17867 17.6548 9.74631 13.8974 9.75161C13.9106 10.5072 13.8126 10.9465 14.2258 11.5922C16.7039 12.0064 19.4415 11.7722 21.9567 11.7735L36.372 11.7867C36.4726 11.0007 36.5971 10.699 36.2567 9.96731ZM36.523 26.9481C35.0237 25.9226 17.1145 26.3923 13.9556 26.4717C13.8033 27.3424 13.6179 27.5276 14.1239 28.2858C16.6522 28.872 19.6879 28.5531 22.2957 28.5505L36.3216 28.5558C36.6064 27.8135 36.7335 27.6997 36.523 26.9481ZM36.4898 18.3975C33.3602 17.4104 21.5209 18.1302 17.4178 18.1051C16.047 18.0984 14.7503 17.9066 13.7159 18.9916C13.6404 19.071 13.5769 19.161 13.508 19.2456L13.5821 19.5897C15.9277 20.639 30.1828 20.1388 33.4754 20.1468C34.5654 20.1282 35.6899 20.3122 36.609 19.7101C36.7892 19.0022 36.8408 19.0273 36.4898 18.3975ZM36.7256 43.6245C35.5694 42.6083 17.4019 43.0767 14.3887 43.0634C14.0179 43.6562 13.9398 43.7859 13.9053 44.4767C14.7371 45.3142 16.484 45.0933 17.6336 45.0986L36.6104 45.1039C36.8713 44.4065 36.9004 44.3417 36.7256 43.6245ZM36.7335 35.3928C35.1455 34.2628 17.0787 34.7272 14.1358 34.8304C13.9133 35.5728 13.8033 35.7064 14.0457 36.4262C15.5344 37.3062 33.5827 36.8986 36.3627 36.7544C36.6805 36.1616 36.7958 36.0504 36.7335 35.3928ZM36.4766 51.3177C33.9284 50.8876 31.1589 51.1271 28.5749 51.1364L13.9133 51.192C13.9133 51.9687 13.7702 52.3775 14.2431 53.0272C17.035 53.4335 20.0746 53.1913 22.8997 53.1768C27.5869 53.153 32.2821 53.1913 36.9666 53.1C36.9044 52.3087 36.9918 51.9396 36.4766 51.3177ZM36.4766 51.3177C33.9284 50.8876 31.1589 51.1271 28.5749 51.1364L13.9133 51.192C13.9133 51.9687 13.7702 52.3775 14.2431 53.0272C17.035 53.4335 20.0746 53.1913 22.8997 53.1768C27.5869 53.153 32.2821 53.1913 36.9666 53.1C36.9044 52.3087 36.9918 51.9396 36.4766 51.3177ZM36.7335 35.3928C35.1455 34.2628 17.0787 34.7272 14.1358 34.8304C13.9133 35.5728 13.8033 35.7064 14.0457 36.4262C15.5344 37.3062 33.5827 36.8986 36.3627 36.7544C36.6805 36.1616 36.7958 36.0504 36.7335 35.3928ZM36.7256 43.6245C35.5694 42.6083 17.4019 43.0767 14.3887 43.0634C14.0179 43.6562 13.9398 43.7859 13.9053 44.4767C14.7371 45.3142 16.484 45.0933 17.6336 45.0986L36.6104 45.1039C36.8713 44.4065 36.9004 44.3417 36.7256 43.6245ZM36.4898 18.3975C33.3602 17.4104 21.5209 18.1302 17.4178 18.1051C16.047 18.0984 14.7503 17.9066 13.7159 18.9916C13.6404 19.071 13.5769 19.161 13.508 19.2456L13.5821 19.5897C15.9277 20.639 30.1828 20.1388 33.4754 20.1468C34.5654 20.1282 35.6899 20.3122 36.609 19.7101C36.7892 19.0022 36.8408 19.0273 36.4898 18.3975ZM36.523 26.9481C35.0237 25.9226 17.1145 26.3923 13.9556 26.4717C13.8033 27.3424 13.6179 27.5276 14.1239 28.2858C16.6522 28.872 19.6879 28.5531 22.2957 28.5505L36.3216 28.5558C36.6064 27.8135 36.7335 27.6997 36.523 26.9481ZM36.2567 9.96731C33.9284 9.17867 17.6548 9.74631 13.8974 9.75161C13.9106 10.5072 13.8126 10.9465 14.2258 11.5922C16.7039 12.0064 19.4415 11.7722 21.9567 11.7735L36.372 11.7867C36.4726 11.0007 36.5971 10.699 36.2567 9.96731ZM36.2567 9.96731C33.9284 9.17867 17.6548 9.74631 13.8974 9.75161C13.9106 10.5072 13.8126 10.9465 14.2258 11.5922C16.7039 12.0064 19.4415 11.7722 21.9567 11.7735L36.372 11.7867C36.4726 11.0007 36.5971 10.699 36.2567 9.96731ZM36.523 26.9481C35.0237 25.9226 17.1145 26.3923 13.9556 26.4717C13.8033 27.3424 13.6179 27.5276 14.1239 28.2858C16.6522 28.872 19.6879 28.5531 22.2957 28.5505L36.3216 28.5558C36.6064 27.8135 36.7335 27.6997 36.523 26.9481ZM36.4898 18.3975C33.3602 17.4104 21.5209 18.1302 17.4178 18.1051C16.047 18.0984 14.7503 17.9066 13.7159 18.9916C13.6404 19.071 13.5769 19.161 13.508 19.2456L13.5821 19.5897C15.9277 20.639 30.1828 20.1388 33.4754 20.1468C34.5654 20.1282 35.6899 20.3122 36.609 19.7101C36.7892 19.0022 36.8408 19.0273 36.4898 18.3975ZM36.7256 43.6245C35.5694 42.6083 17.4019 43.0767 14.3887 43.0634C14.0179 43.6562 13.9398 43.7859 13.9053 44.4767C14.7371 45.3142 16.484 45.0933 17.6336 45.0986L36.6104 45.1039C36.8713 44.4065 36.9004 44.3417 36.7256 43.6245ZM36.7335 35.3928C35.1455 34.2628 17.0787 34.7272 14.1358 34.8304C13.9133 35.5728 13.8033 35.7064 14.0457 36.4262C15.5344 37.3062 33.5827 36.8986 36.3627 36.7544C36.6805 36.1616 36.7958 36.0504 36.7335 35.3928ZM36.4766 51.3177C33.9284 50.8876 31.1589 51.1271 28.5749 51.1364L13.9133 51.192C13.9133 51.9687 13.7702 52.3775 14.2431 53.0272C17.035 53.4335 20.0746 53.1913 22.8997 53.1768C27.5869 53.153 32.2821 53.1913 36.9666 53.1C36.9044 52.3087 36.9918 51.9396 36.4766 51.3177ZM36.4766 51.3177C33.9284 50.8876 31.1589 51.1271 28.5749 51.1364L13.9133 51.192C13.9133 51.9687 13.7702 52.3775 14.2431 53.0272C17.035 53.4335 20.0746 53.1913 22.8997 53.1768C27.5869 53.153 32.2821 53.1913 36.9666 53.1C36.9044 52.3087 36.9918 51.9396 36.4766 51.3177ZM36.7335 35.3928C35.1455 34.2628 17.0787 34.7272 14.1358 34.8304C13.9133 35.5728 13.8033 35.7064 14.0457 36.4262C15.5344 37.3062 33.5827 36.8986 36.3627 36.7544C36.6805 36.1616 36.7958 36.0504 36.7335 35.3928ZM36.7256 43.6245C35.5694 42.6083 17.4019 43.0767 14.3887 43.0634C14.0179 43.6562 13.9398 43.7859 13.9053 44.4767C14.7371 45.3142 16.484 45.0933 17.6336 45.0986L36.6104 45.1039C36.8713 44.4065 36.9004 44.3417 36.7256 43.6245ZM36.4898 18.3975C33.3602 17.4104 21.5209 18.1302 17.4178 18.1051C16.047 18.0984 14.7503 17.9066 13.7159 18.9916C13.6404 19.071 13.5769 19.161 13.508 19.2456L13.5821 19.5897C15.9277 20.639 30.1828 20.1388 33.4754 20.1468C34.5654 20.1282 35.6899 20.3122 36.609 19.7101C36.7892 19.0022 36.8408 19.0273 36.4898 18.3975ZM36.523 26.9481C35.0237 25.9226 17.1145 26.3923 13.9556 26.4717C13.8033 27.3424 13.6179 27.5276 14.1239 28.2858C16.6522 28.872 19.6879 28.5531 22.2957 28.5505L36.3216 28.5558C36.6064 27.8135 36.7335 27.6997 36.523 26.9481ZM36.2567 9.96731C33.9284 9.17867 17.6548 9.74631 13.8974 9.75161C13.9106 10.5072 13.8126 10.9465 14.2258 11.5922C16.7039 12.0064 19.4415 11.7722 21.9567 11.7735L36.372 11.7867C36.4726 11.0007 36.5971 10.699 36.2567 9.96731ZM50.5025 11.5128C50.08 10.838 50.1754 10.5918 50.2058 9.81379C53.603 9.77542 69.5203 9.08074 71.5957 10.0546C71.989 10.6792 71.8858 10.834 71.8142 11.5816C68.3031 11.9627 53.6679 12.1863 50.5025 11.5128ZM71.8897 51.6736C72.2831 52.363 72.1109 52.3683 71.9215 53.0974C69.1415 53.313 52.1766 53.7365 50.6005 52.8724C50.4124 52.1645 50.4456 52.011 50.6283 51.2938C54.3646 51.2197 69.3905 50.615 71.8897 51.6736ZM50.5105 19.8676C50.0429 19.3198 50.1436 18.9427 50.0906 18.248C54.2971 18.0204 68.1853 17.6102 71.7546 18.3432C72.2209 18.9731 72.0897 19.2814 72.0897 20.0343C68.213 20.2368 64.2503 20.0727 60.3644 20.074C57.1751 20.0753 53.6494 20.3836 50.5105 19.8676ZM72.0884 27.0605C72.242 27.7711 72.0977 27.8386 71.8301 28.4856C68.3587 28.6921 52.8282 29.1605 50.3846 28.2104C50.1224 27.4998 50.2019 27.341 50.3635 26.5881C53.4666 26.5709 70.5653 26.0562 72.0884 27.0605ZM72.3083 44.8564C68.8435 45.2997 65.1152 45.0681 61.6239 45.0748C58.0929 45.0814 54.4123 45.3023 50.8998 44.9318C50.2985 44.4515 50.3052 43.9209 50.1038 43.1997C53.4547 42.8835 57.032 43.119 60.4067 43.119C64.1284 43.1177 68.0382 42.8332 71.7215 43.2752C72.303 43.7859 72.2076 44.1061 72.3083 44.8564ZM71.744 35.1599C71.9493 35.2697 72.0977 35.4616 72.2751 35.6111L72.3268 36.7068C68.8938 37.1858 54.1434 37.2254 50.68 36.7848C50.1158 36.11 50.186 35.8599 50.1131 35.0051C52.5104 34.8754 70.6712 34.5843 71.744 35.1599ZM72.3083 44.8564C68.8435 45.2997 65.1152 45.0681 61.6239 45.0748C58.0929 45.0814 54.4123 45.3023 50.8998 44.9318C50.2985 44.4515 50.3052 43.9209 50.1038 43.1997C53.4547 42.8835 57.032 43.119 60.4067 43.119C64.1284 43.1177 68.0382 42.8332 71.7215 43.2752C72.303 43.7859 72.2076 44.1061 72.3083 44.8564ZM72.0897 20.0343C68.213 20.2368 64.2503 20.0727 60.3644 20.074C57.1751 20.0753 53.6494 20.3836 50.5105 19.8676C50.0429 19.3198 50.1436 18.9427 50.0906 18.248C54.2971 18.0204 68.1853 17.6102 71.7546 18.3432C72.2209 18.9731 72.0897 19.2814 72.0897 20.0343ZM71.9215 53.0974C69.1415 53.313 52.1766 53.7365 50.6005 52.8724C50.4124 52.1645 50.4456 52.011 50.6283 51.2938C54.3646 51.2197 69.3905 50.615 71.8897 51.6736C72.2831 52.363 72.1109 52.3683 71.9215 53.0974ZM72.3268 36.7068C68.8938 37.1858 54.1434 37.2254 50.68 36.7848C50.1158 36.11 50.186 35.8599 50.1131 35.0051C52.5104 34.8754 70.6712 34.5843 71.744 35.1599C71.9493 35.2697 72.0977 35.4616 72.2751 35.6111L72.3268 36.7068ZM71.8142 11.5816C68.3031 11.9627 53.6679 12.1863 50.5025 11.5128C50.08 10.838 50.1754 10.5918 50.2058 9.81379C53.603 9.77542 69.5203 9.08074 71.5957 10.0546C71.989 10.6792 71.8858 10.834 71.8142 11.5816ZM71.8301 28.4856C68.3587 28.6921 52.8282 29.1605 50.3846 28.2104C50.1224 27.4998 50.2019 27.341 50.3635 26.5881C53.4666 26.5709 70.5653 26.0562 72.0884 27.0605C72.242 27.7711 72.0977 27.8386 71.8301 28.4856ZM13.8974 9.75161C17.6548 9.74631 33.9284 9.17867 36.2567 9.96731C36.5971 10.699 36.4726 11.0007 36.372 11.7867L21.9567 11.7735C19.4415 11.7722 16.7039 12.0064 14.2258 11.5922C13.8126 10.9465 13.9106 10.5072 13.8974 9.75161ZM14.1239 28.2858C13.6179 27.5276 13.8033 27.3424 13.9556 26.4717C17.1145 26.3923 35.0237 25.9226 36.523 26.9481C36.7335 27.6997 36.6064 27.8135 36.3216 28.5558L22.2957 28.5505C19.6879 28.5531 16.6522 28.872 14.1239 28.2858ZM13.5821 19.5897L13.508 19.2456C13.5769 19.161 13.6404 19.071 13.7159 18.9916C14.7503 17.9066 16.047 18.0984 17.4178 18.1051C21.5209 18.1302 33.3602 17.4104 36.4898 18.3975C36.8408 19.0273 36.7892 19.0022 36.609 19.7101C35.6899 20.3122 34.5654 20.1282 33.4754 20.1468C30.1828 20.1388 15.9277 20.639 13.5821 19.5897ZM36.7256 43.6245C36.9004 44.3417 36.8713 44.4065 36.6104 45.1039L17.6336 45.0986C16.484 45.0933 14.7371 45.3142 13.9053 44.4767C13.9398 43.7859 14.0179 43.6562 14.3887 43.0634C17.4019 43.0767 35.5694 42.6083 36.7256 43.6245ZM36.7335 35.3928C36.7958 36.0504 36.6805 36.1616 36.3627 36.7544C33.5827 36.8986 15.5344 37.3062 14.0457 36.4262C13.8033 35.7064 13.9133 35.5728 14.1358 34.8304C17.0787 34.7272 35.1455 34.2628 36.7335 35.3928ZM36.9666 53.1C32.2821 53.1913 27.5869 53.153 22.8997 53.1768C20.0746 53.1913 17.035 53.4335 14.2431 53.0272C13.7702 52.3775 13.9133 51.9687 13.9133 51.192L28.5749 51.1364C31.1589 51.1271 33.9284 50.8876 36.4766 51.3177C36.9918 51.9396 36.9044 52.3087 36.9666 53.1ZM36.9666 53.1C32.2821 53.1913 27.5869 53.153 22.8997 53.1768C20.0746 53.1913 17.035 53.4335 14.2431 53.0272C13.7702 52.3775 13.9133 51.9687 13.9133 51.192L28.5749 51.1364C31.1589 51.1271 33.9284 50.8876 36.4766 51.3177C36.9918 51.9396 36.9044 52.3087 36.9666 53.1ZM36.6104 45.1039L17.6336 45.0986C16.484 45.0933 14.7371 45.3142 13.9053 44.4767C13.9398 43.7859 14.0179 43.6562 14.3887 43.0634C17.4019 43.0767 35.5694 42.6083 36.7256 43.6245C36.9004 44.3417 36.8713 44.4065 36.6104 45.1039ZM36.372 11.7867L21.9567 11.7735C19.4415 11.7722 16.7039 12.0064 14.2258 11.5922C13.8126 10.9465 13.9106 10.5072 13.8974 9.75161C17.6548 9.74631 33.9284 9.17867 36.2567 9.96731C36.5971 10.699 36.4726 11.0007 36.372 11.7867ZM36.609 19.7101C35.6899 20.3122 34.5654 20.1282 33.4754 20.1468C30.1828 20.1388 15.9277 20.639 13.5821 19.5897L13.508 19.2456C13.5769 19.161 13.6404 19.071 13.7159 18.9916C14.7503 17.9066 16.047 18.0984 17.4178 18.1051C21.5209 18.1302 33.3602 17.4104 36.4898 18.3975C36.8408 19.0273 36.7892 19.0022 36.609 19.7101ZM36.3627 36.7544C33.5827 36.8986 15.5344 37.3062 14.0457 36.4262C13.8033 35.7064 13.9133 35.5728 14.1358 34.8304C17.0787 34.7272 35.1455 34.2628 36.7335 35.3928C36.7958 36.0504 36.6805 36.1616 36.3627 36.7544ZM36.3216 28.5558L22.2957 28.5505C19.6879 28.5531 16.6522 28.872 14.1239 28.2858C13.6179 27.5276 13.8033 27.3424 13.9556 26.4717C17.1145 26.3923 35.0237 25.9226 36.523 26.9481C36.7335 27.6997 36.6064 27.8135 36.3216 28.5558Z" fill="#0060D0"/>
</svg>
