<svg width="80" height="94" viewBox="0 0 80 94" fill="none" xmlns="http://www.w3.org/2000/svg">
<path d="M70.0415 36.5653C72.4217 36.5785 74.8086 36.3293 77.1848 36.5059C78.2628 36.5864 78.7946 36.6787 79.5 37.5066L79.3846 38.5455C76.6477 38.684 73.4719 39.0663 70.8212 38.2924C70.1211 37.6714 70.1967 37.4578 70.0415 36.5653ZM62.4792 60.8098C63.1038 62.3062 66.5475 65.9148 68.1268 66.5081C68.2594 66.5582 68.6015 66.6175 68.7553 66.6465C68.9661 66.2404 69.3162 65.8845 69.1664 65.4191C68.6611 63.833 64.9722 60.1361 63.495 59.5191C63.2258 59.407 62.9142 59.3912 62.6264 59.3793C62.4156 59.9687 62.2246 60.202 62.4779 60.8111L62.4792 60.8098ZM8.89753 66.0572L9.56452 66.7006L10.5988 66.4791C12.0588 65.0103 15.6708 62.1045 16.0342 60.1084C15.6854 59.6101 15.5462 59.5204 14.8938 59.44C14.7678 59.4242 14.6405 59.4413 14.5145 59.4426C12.8796 61.0524 9.35899 63.8317 8.89886 66.0572H8.89753ZM0.80485 38.6761C3.05908 39.7967 6.8369 38.9964 9.36164 39.0162C9.51015 38.2634 9.65071 38.0406 9.31921 37.3286C7.3819 36.1539 2.89996 36.8461 0.623186 36.8725C0.502518 37.7176 0.35533 37.9219 0.80485 38.6761ZM11.0112 13.3319C11.8028 14.8165 15.5754 18.7217 17.0936 19.1014C17.3748 19.1713 17.514 19.1726 17.7885 19.1924C18.002 18.5648 18.2353 18.2629 17.945 17.6221C17.3549 16.3169 13.4285 12.4328 12.0256 11.9265C11.7379 11.8223 11.3798 11.8131 11.0762 11.8026C10.8746 12.4525 10.6717 12.6938 11.0112 13.3306V13.3319ZM38.363 9.12088C38.6255 9.84734 38.8509 9.9739 39.5126 10.3167C40.6636 8.61724 40.5138 3.56239 40.1146 1.51619C40.0457 1.16417 39.933 0.907078 39.7871 0.581427C39.4172 0.36916 39.0697 0.164803 38.6759 0C37.6085 1.87612 37.6085 7.03381 38.363 9.12088ZM61.2407 17.5562C61.3667 18.3907 61.5245 18.4461 62.1318 19.0566C64.0943 17.3386 67.0938 15.2423 68.1572 12.8415C68.1055 12.1177 68.1095 11.9951 67.5128 11.5072C67.4187 11.4308 67.3099 11.3741 67.2078 11.3082C65.1684 12.6978 62.0735 15.1975 61.2421 17.5562H61.2407ZM53.4676 81.2244C53.2714 81.3997 53.0725 81.5724 52.8802 81.7531C51.6391 82.9146 52.6442 84.498 52.5301 86.0511C52.4837 86.6853 52.2954 86.9819 51.769 87.3656C51.2625 87.7321 50.7374 87.599 50.1765 87.5001C49.5506 87.388 49.1912 87.3432 48.5614 87.5264C47.8652 88.2331 47.8241 88.6563 47.5562 89.5937C47.4488 89.9088 47.3467 90.2147 47.1903 90.5101C46.3032 92.1831 44.7968 93.1166 42.9868 93.5648C40.1955 94.2557 35.4683 94.2399 33.0377 92.6617C31.0341 91.3618 30.4082 89.7111 29.9587 87.4592C28.5783 87.4843 27.2244 87.5225 25.8493 87.3735C24.3032 85.9865 26.1358 84.498 25.7194 82.817C25.5152 81.9956 25.1161 81.8058 24.4716 81.3338C24.2263 80.6192 24.5193 80.2936 24.7792 79.6119C29.2068 79.5144 50.8275 78.9989 53.0804 79.9046C53.5326 80.5216 53.5658 80.4755 53.4676 81.2244ZM45.721 88.2292L45.5274 87.6227C41.3067 87.1085 36.5649 87.3972 32.3031 87.4948C32.5497 88.804 32.7221 89.9036 33.9288 90.6788C36.2161 92.1528 40.4461 91.9867 43.0199 91.2721C43.5649 91.1218 44.0927 90.895 44.5648 90.5892C45.131 89.7862 45.4704 89.1811 45.721 88.2292ZM50.1592 85.2759L50.134 81.8612C42.6593 81.8533 35.1792 81.79 27.7044 81.8783L27.9365 85.264L50.1592 85.2759ZM60.8297 52.8637C58.8937 55.7576 55.7484 57.7208 54.0829 60.8454C52.135 64.4988 51.7173 68.2141 51.7001 72.2762L52.8829 73.8227C52.9651 74.5492 53.0009 74.561 52.6044 75.1675C50.3223 76.3106 44.9466 75.6303 42.2111 75.6118C38.05 75.6329 28.3396 76.3027 24.7541 75.2057L24.5445 74.6428C24.7381 73.7924 25.3362 73.3323 25.9369 72.7456C26.1835 56.2613 15.3897 56.2217 13.6898 42.3861C12.8928 35.8876 14.9588 29.3574 19.0416 24.2564C23.546 18.6294 29.9812 15.597 37.0661 14.7624C37.8829 14.6688 38.7236 14.6781 39.5444 14.6767C46.0936 14.6688 53.1852 17.8752 57.7507 22.4963C65.5344 30.3726 67.0275 43.6057 60.8297 52.8637ZM40.9209 49.9658C39.2845 49.9486 37.6469 49.9157 36.0106 49.917C36.6458 55.2619 36.6763 67.9636 36.0305 73.352L40.5986 73.3745C40.596 66.5015 40.0192 56.4683 40.9209 49.9658ZM55.6569 23.4021C50.6671 18.7243 43.976 16.5265 37.1881 16.8429C36.8129 16.8614 36.4495 16.8956 36.0756 16.9365C29.5874 17.9807 23.7741 21.1318 19.9114 26.5149C16.4717 31.3061 14.972 37.471 15.9758 43.2853C17.6731 53.1115 25.2792 55.7563 27.3 64.6517C27.9498 67.5127 27.8914 70.4291 27.8689 73.3428C29.6762 73.3758 31.5844 73.5248 33.3665 73.2123C34.7615 71.4561 34.1595 55.4794 33.8214 52.5301C33.7126 51.5795 33.5827 50.6316 33.4421 49.6836C31.713 49.205 29.0411 48.0976 28.0983 46.4957C27.8835 46.1318 27.9829 45.9287 28.0214 45.5345C28.4749 45.0375 28.5571 44.9188 29.1936 44.7277C30.6734 45.2234 31.7926 46.7013 33.1769 47.4805C36.0013 47.6097 38.8218 47.5623 41.6488 47.528C41.7509 47.5254 41.8544 47.524 41.9578 47.5214C44.3738 47.4423 45.8072 44.9531 47.9249 45.3038C48.1994 45.9604 48.1476 46.0764 48.0164 46.7857C46.8866 48.3125 45.5487 49.118 43.7652 49.7139C41.9883 54.9969 42.886 67.3242 42.9231 73.2703L49.65 73.265C49.5108 69.0579 49.6978 65.1264 51.5051 61.2462C53.3456 57.2949 56.8728 54.9296 59.1788 51.3673C64.7984 42.6907 63.1621 30.4372 55.6569 23.4021Z" fill="#0060D0"/>
</svg>
