<svg width="86" height="98" viewBox="0 0 86 98" fill="none" xmlns="http://www.w3.org/2000/svg">
<path d="M52.033 68.4474C56.8048 68.3795 61.5845 68.4274 66.3577 68.4208C69.6566 68.4168 73.0401 68.2612 76.3257 68.5218C76.651 69.063 76.5056 69.7464 76.4963 70.3754L61.0715 70.4206C58.3729 70.4272 55.2261 70.749 52.5896 70.2198C52.0475 69.5869 52.1176 69.2624 52.033 68.4474ZM52.07 76.9426C53.5059 77.9199 72.8457 77.3402 76.2953 77.3388C76.3733 76.537 76.5333 76.2033 76.1063 75.5026C72.9409 75.0026 69.3816 75.3457 66.1673 75.347C61.5555 75.3497 56.8484 75.1489 52.2472 75.4161C52.0079 76.0983 51.9259 76.2432 52.07 76.9413V76.9426ZM52.0726 63.1978C53.4186 64.1113 73.2424 63.6047 76.1168 63.5462C76.5056 62.9252 76.5095 62.8335 76.5042 62.0955C76.3376 61.9626 76.2001 61.7817 76.0045 61.6966C74.6267 61.0983 54.8863 61.5544 52.189 61.6262C51.9391 62.3615 51.8783 62.4572 52.0726 63.1978ZM51.9642 55.6201C55.3966 56.12 59.2112 55.8062 62.6873 55.8075C67.2951 55.8089 72.0246 56.0349 76.618 55.6852C76.4752 54.8954 76.5399 54.4167 75.9344 53.8702C72.4438 53.3769 68.6425 53.6734 65.1122 53.6867C60.499 53.704 55.7999 53.5378 51.1987 53.8755C51.3904 54.6387 51.3917 55.0669 51.9642 55.6214V55.6201ZM38.3654 78.3667C38.1763 79.3134 37.7876 79.8386 36.9969 80.3838C36.5024 80.4942 36.1282 80.5832 35.6245 80.4277C34.301 80.0168 33.9043 78.6845 33.3728 77.5383L29.5622 77.4997C26.7102 77.4758 23.8648 77.4997 21.0128 77.5516C20.6426 78.1313 20.2645 78.7164 19.8189 79.2403C19.0679 80.1218 18.3208 80.4862 17.1864 80.5819C16.7382 80.4011 16.4367 80.3692 16.1339 79.9636C15.3433 78.9025 15.3975 77.3867 15.6302 76.1421C16.3415 72.3619 19.1247 70.3022 22.0296 68.2133C21.0961 66.2454 20.3266 63.9225 20.9335 61.7419C21.5404 59.5599 23.2487 58.4522 25.1222 57.4337C26.7842 57.2595 28.2334 57.2755 29.7645 58.0414C31.1687 58.7448 32.1563 59.9521 32.6284 61.4506C33.3886 63.868 32.8016 66.0407 31.7346 68.2399C33.587 69.4247 35.2728 70.7211 36.6029 72.5068C37.822 74.1423 38.7819 76.2818 38.3654 78.3667ZM23.9891 66.7401C24.5259 67.4355 25.4938 68.1774 26.3823 68.3104C27.009 68.4048 27.5379 68.3064 28.1342 68.1296C29.6138 67.1589 30.6213 66.1683 30.9412 64.348C31.1303 63.2723 30.9505 62.1009 30.3066 61.2033C29.6561 60.2965 28.6208 59.6968 27.5207 59.5545C26.7975 59.4614 26.1126 59.5279 25.3959 59.633C24.2205 60.4308 23.3452 61.1235 23.0847 62.5968C22.8375 63.9903 23.1138 65.6085 23.9891 66.7401ZM35.6853 74.637C34.6394 72.7143 32.4565 70.9285 30.7112 69.6427C28.5071 70.7025 26.8477 71.1612 24.4559 70.3475C24.038 70.2052 23.6467 70.0376 23.25 69.8448C20.6426 71.7955 18.3658 73.5493 17.8475 77.0024C17.7999 77.3189 17.7629 77.638 17.7206 77.9558L17.5685 79.0781C18.1688 77.9106 18.6593 76.7525 19.1261 75.5278C23.5092 75.117 28.039 75.3324 32.4433 75.3816L32.7936 75.4454C33.5354 75.585 34.4676 75.6767 34.9779 76.3044C35.1882 76.5636 35.3058 76.8748 35.4566 77.17C35.6218 77.4904 35.8188 77.8042 35.9973 78.1167L36.3543 77.9891C36.6505 76.9905 36.1732 75.5358 35.6853 74.637ZM41.3285 81.7587C37.7704 86.2543 33.0396 88.2807 27.4678 88.8711C22.8414 88.7261 17.8303 86.8832 14.3027 83.8463C10.4313 80.5154 7.99183 75.585 7.63219 70.4857C7.28578 65.5726 8.78912 60.8722 12.0259 57.1638C15.732 52.9142 20.5117 50.9994 26.0213 50.6192C30.5724 50.7242 34.6579 51.8345 38.2993 54.6786C42.2223 57.7409 44.9381 62.3987 45.537 67.3703C46.1492 72.4403 44.4753 77.7843 41.3285 81.7587ZM43.1161 66.3797C42.2249 61.8761 39.5845 57.9815 35.762 55.4751C32.5266 53.3543 28.6737 52.4342 24.8367 52.7985C20.1428 53.5072 15.8497 55.5403 12.9474 59.4442C10.2911 63.017 9.34709 67.4794 9.97778 71.8593C10.619 76.3177 13.2529 80.2309 16.8096 82.8955C20.324 85.5269 24.3686 86.7636 28.7385 86.6399C33.4085 85.7251 37.4808 83.7027 40.2284 79.6206C42.8503 75.7246 44.039 71.0362 43.1161 66.3797ZM38.3654 78.3667C38.1763 79.3134 37.7876 79.8386 36.9969 80.3838C36.5024 80.4942 36.1282 80.5832 35.6245 80.4277C34.301 80.0168 33.9043 78.6845 33.3728 77.5383L29.5622 77.4997C26.7102 77.4758 23.8648 77.4997 21.0128 77.5516C20.6426 78.1313 20.2645 78.7164 19.8189 79.2403C19.0679 80.1218 18.3208 80.4862 17.1864 80.5819C16.7382 80.4011 16.4367 80.3692 16.1339 79.9636C15.3433 78.9025 15.3975 77.3867 15.6302 76.1421C16.3415 72.3619 19.1247 70.3022 22.0296 68.2133C21.0961 66.2454 20.3266 63.9225 20.9335 61.7419C21.5404 59.5599 23.2487 58.4522 25.1222 57.4337C26.7842 57.2595 28.2334 57.2755 29.7645 58.0414C31.1687 58.7448 32.1563 59.9521 32.6284 61.4506C33.3886 63.868 32.8016 66.0407 31.7346 68.2399C33.587 69.4247 35.2728 70.7211 36.6029 72.5068C37.822 74.1423 38.7819 76.2818 38.3654 78.3667ZM23.9891 66.7401C24.5259 67.4355 25.4938 68.1774 26.3823 68.3104C27.009 68.4048 27.5379 68.3064 28.1342 68.1296C29.6138 67.1589 30.6213 66.1683 30.9412 64.348C31.1303 63.2723 30.9505 62.1009 30.3066 61.2033C29.6561 60.2965 28.6208 59.6968 27.5207 59.5545C26.7975 59.4614 26.1126 59.5279 25.3959 59.633C24.2205 60.4308 23.3452 61.1235 23.0847 62.5968C22.8375 63.9903 23.1138 65.6085 23.9891 66.7401ZM35.6853 74.637C34.6394 72.7143 32.4565 70.9285 30.7112 69.6427C28.5071 70.7025 26.8477 71.1612 24.4559 70.3475C24.038 70.2052 23.6467 70.0376 23.25 69.8448C20.6426 71.7955 18.3658 73.5493 17.8475 77.0024C17.7999 77.3189 17.7629 77.638 17.7206 77.9558L17.5685 79.0781C18.1688 77.9106 18.6593 76.7525 19.1261 75.5278C23.5092 75.117 28.039 75.3324 32.4433 75.3816L32.7936 75.4454C33.5354 75.585 34.4676 75.6767 34.9779 76.3044C35.1882 76.5636 35.3058 76.8748 35.4566 77.17C35.6218 77.4904 35.8188 77.8042 35.9973 78.1167L36.3543 77.9891C36.6505 76.9905 36.1732 75.5358 35.6853 74.637ZM38.3654 78.3667C38.1763 79.3134 37.7876 79.8386 36.9969 80.3838C36.5024 80.4942 36.1282 80.5832 35.6245 80.4277C34.301 80.0168 33.9043 78.6845 33.3728 77.5383L29.5622 77.4997C26.7102 77.4758 23.8648 77.4997 21.0128 77.5516C20.6426 78.1313 20.2645 78.7164 19.8189 79.2403C19.0679 80.1218 18.3208 80.4862 17.1864 80.5819C16.7382 80.4011 16.4367 80.3692 16.1339 79.9636C15.3433 78.9025 15.3975 77.3867 15.6302 76.1421C16.3415 72.3619 19.1247 70.3022 22.0296 68.2133C21.0961 66.2454 20.3266 63.9225 20.9335 61.7419C21.5404 59.5599 23.2487 58.4522 25.1222 57.4337C26.7842 57.2595 28.2334 57.2755 29.7645 58.0414C31.1687 58.7448 32.1563 59.9521 32.6284 61.4506C33.3886 63.868 32.8016 66.0407 31.7346 68.2399C33.587 69.4247 35.2728 70.7211 36.6029 72.5068C37.822 74.1423 38.7819 76.2818 38.3654 78.3667ZM23.9891 66.7401C24.5259 67.4355 25.4938 68.1774 26.3823 68.3104C27.009 68.4048 27.5379 68.3064 28.1342 68.1296C29.6138 67.1589 30.6213 66.1683 30.9412 64.348C31.1303 63.2723 30.9505 62.1009 30.3066 61.2033C29.6561 60.2965 28.6208 59.6968 27.5207 59.5545C26.7975 59.4614 26.1126 59.5279 25.3959 59.633C24.2205 60.4308 23.3452 61.1235 23.0847 62.5968C22.8375 63.9903 23.1138 65.6085 23.9891 66.7401ZM35.6853 74.637C34.6394 72.7143 32.4565 70.9285 30.7112 69.6427C28.5071 70.7025 26.8477 71.1612 24.4559 70.3475C24.038 70.2052 23.6467 70.0376 23.25 69.8448C20.6426 71.7955 18.3658 73.5493 17.8475 77.0024C17.7999 77.3189 17.7629 77.638 17.7206 77.9558L17.5685 79.0781C18.1688 77.9106 18.6593 76.7525 19.1261 75.5278C23.5092 75.117 28.039 75.3324 32.4433 75.3816L32.7936 75.4454C33.5354 75.585 34.4676 75.6767 34.9779 76.3044C35.1882 76.5636 35.3058 76.8748 35.4566 77.17C35.6218 77.4904 35.8188 77.8042 35.9973 78.1167L36.3543 77.9891C36.6505 76.9905 36.1732 75.5358 35.6853 74.637ZM65.0699 27.8619C63.4422 30.4188 61.1773 31.452 58.3623 32.1208C56.0326 32.1541 54.1617 32.0397 52.1136 30.7406C50.0312 29.4189 48.5688 27.2329 48.073 24.8143C47.5613 22.3211 48.0558 19.5993 49.4798 17.4865C51.2106 14.9189 53.732 13.8857 56.6435 13.3419C58.4787 13.2568 60.3602 13.7075 61.9429 14.6476C64.1919 15.9853 65.7825 18.2683 66.3445 20.8279C66.8747 23.2413 66.3934 25.7849 65.0699 27.8619ZM63.7569 19.574C62.8261 17.6939 61.1363 16.3576 59.161 15.7233C58.0397 15.363 56.8273 15.4388 55.6664 15.5119C53.3552 16.5052 51.6165 17.7364 50.6301 20.1684C49.8884 21.9967 49.8751 24.0643 50.6777 25.8753C51.4578 27.6358 52.9241 28.9934 54.7197 29.6636C56.2098 30.2194 57.5545 30.222 59.1014 29.992C61.406 28.9522 63.1527 27.7316 64.061 25.2424C64.7314 23.4022 64.6269 21.3305 63.7569 19.574ZM65.0699 27.8619C63.4422 30.4188 61.1773 31.452 58.3623 32.1208C56.0326 32.1541 54.1617 32.0397 52.1136 30.7406C50.0312 29.4189 48.5688 27.2329 48.073 24.8143C47.5613 22.3211 48.0558 19.5993 49.4798 17.4865C51.2106 14.9189 53.732 13.8857 56.6435 13.3419C58.4787 13.2568 60.3602 13.7075 61.9429 14.6476C64.1919 15.9853 65.7825 18.2683 66.3445 20.8279C66.8747 23.2413 66.3934 25.7849 65.0699 27.8619ZM63.7569 19.574C62.8261 17.6939 61.1363 16.3576 59.161 15.7233C58.0397 15.363 56.8273 15.4388 55.6664 15.5119C53.3552 16.5052 51.6165 17.7364 50.6301 20.1684C49.8884 21.9967 49.8751 24.0643 50.6777 25.8753C51.4578 27.6358 52.9241 28.9934 54.7197 29.6636C56.2098 30.2194 57.5545 30.222 59.1014 29.992C61.406 28.9522 63.1527 27.7316 64.061 25.2424C64.7314 23.4022 64.6269 21.3305 63.7569 19.574ZM65.0699 27.8619C63.4422 30.4188 61.1773 31.452 58.3623 32.1208C56.0326 32.1541 54.1617 32.0397 52.1136 30.7406C50.0312 29.4189 48.5688 27.2329 48.073 24.8143C47.5613 22.3211 48.0558 19.5993 49.4798 17.4865C51.2106 14.9189 53.732 13.8857 56.6435 13.3419C58.4787 13.2568 60.3602 13.7075 61.9429 14.6476C64.1919 15.9853 65.7825 18.2683 66.3445 20.8279C66.8747 23.2413 66.3934 25.7849 65.0699 27.8619ZM63.7569 19.574C62.8261 17.6939 61.1363 16.3576 59.161 15.7233C58.0397 15.363 56.8273 15.4388 55.6664 15.5119C53.3552 16.5052 51.6165 17.7364 50.6301 20.1684C49.8884 21.9967 49.8751 24.0643 50.6777 25.8753C51.4578 27.6358 52.9241 28.9934 54.7197 29.6636C56.2098 30.2194 57.5545 30.222 59.1014 29.992C61.406 28.9522 63.1527 27.7316 64.061 25.2424C64.7314 23.4022 64.6269 21.3305 63.7569 19.574ZM65.0699 27.8619C63.4422 30.4188 61.1773 31.452 58.3623 32.1208C56.0326 32.1541 54.1617 32.0397 52.1136 30.7406C50.0312 29.4189 48.5688 27.2329 48.073 24.8143C47.5613 22.3211 48.0558 19.5993 49.4798 17.4865C51.2106 14.9189 53.732 13.8857 56.6435 13.3419C58.4787 13.2568 60.3602 13.7075 61.9429 14.6476C64.1919 15.9853 65.7825 18.2683 66.3445 20.8279C66.8747 23.2413 66.3934 25.7849 65.0699 27.8619ZM63.7569 19.574C62.8261 17.6939 61.1363 16.3576 59.161 15.7233C58.0397 15.363 56.8273 15.4388 55.6664 15.5119C53.3552 16.5052 51.6165 17.7364 50.6301 20.1684C49.8884 21.9967 49.8751 24.0643 50.6777 25.8753C51.4578 27.6358 52.9241 28.9934 54.7197 29.6636C56.2098 30.2194 57.5545 30.222 59.1014 29.992C61.406 28.9522 63.1527 27.7316 64.061 25.2424C64.7314 23.4022 64.6269 21.3305 63.7569 19.574ZM85.24 91.2924C84.8963 93.4026 83.7631 95.2588 82.0046 96.4715C80.607 97.4341 78.9847 97.8131 77.3148 97.9221C73.7673 98.1522 70.0413 97.7998 66.4701 97.7958L38.3932 97.7213L20.1838 97.591C16.524 97.5698 12.2982 97.9966 8.72432 97.1815C5.94505 96.5472 3.41965 94.6671 1.98375 92.1899C1.27901 90.9759 0.894251 89.6715 0.775253 88.278C0.529324 85.4086 0.690642 82.4009 0.686676 79.5142L0.669487 63.5834L0.662869 43.9602C0.662869 40.507 0.120772 35.2602 1.01458 32.049C1.63998 29.8005 2.96879 27.947 5.03142 26.8274C6.30999 26.1333 7.73664 25.7876 9.17784 25.6733C11.7918 25.4645 32.1484 25.3342 33.7126 25.8913C34.3102 26.1054 34.3565 26.1852 34.5892 26.733C34.453 26.9683 34.3671 27.2436 34.1793 27.4377C33.3979 28.2421 12.1237 27.3114 8.79307 27.8685C7.44311 28.0946 6.13545 28.552 5.0724 29.4415C3.15257 31.0478 2.88681 33.2351 2.71625 35.5633C2.59196 46.2937 2.74799 57.0428 2.77046 67.7745C2.78501 74.129 2.42007 80.7495 2.90929 87.072C3.1248 89.8431 3.65899 91.7338 5.86441 93.5222C6.93143 94.3865 8.18619 95.0913 9.56393 95.2628C12.7782 95.663 16.1115 95.4968 19.3482 95.5008L35.4301 95.5394L65.0712 95.7308C69.4014 95.7335 74.1732 96.159 78.4426 95.5487C79.9446 95.3346 81.2179 94.7948 82.1143 93.5143C82.8363 92.4851 83.2012 91.2911 83.3427 90.0518C83.6785 87.1212 83.4881 83.9938 83.4815 81.0433L83.4207 64.6764L83.3308 45.0266C83.3083 40.7331 83.6362 36.0766 82.794 31.8575C82.2519 31.1382 81.6238 30.3643 80.9045 29.8192C78.6859 28.1385 75.9807 28.7235 73.4248 29.0094C72.7598 30.3577 72.1714 31.7485 71.5579 33.122C72.4821 34.0807 73.9299 35.2375 73.8466 36.6869C73.7276 38.7519 69.724 41.4365 68.2762 42.7781C67.2224 41.4139 66.1527 40.0909 65.0077 38.8011C63.4105 39.4566 61.8834 40.027 60.2002 40.4153C60.1923 42.1266 60.0931 43.7833 59.908 45.4853C56.502 45.2633 53.145 45.0159 49.776 44.4428C49.9677 42.7542 50.2216 41.0761 50.4701 39.3954C48.7579 38.6415 47.1369 37.8424 45.5185 36.901C44.187 37.9328 43.001 39.1508 41.7925 40.3222C40.1729 37.9062 38.3442 35.6431 36.747 33.2125C37.9119 31.6089 39.324 30.4694 40.8432 29.2235C40.6541 28.6251 40.4505 28.0334 40.2456 27.4404C39.6638 25.7517 37.6871 25.1946 37.1834 23.6628C37.8696 22.9594 39.759 22.9554 40.7692 22.6336L40.8247 21.9808C39.997 21.3053 35.7369 21.8491 34.3671 21.7574C35.6879 21.1803 37.35 20.9675 38.5346 20.1591C39.3623 19.594 39.6638 19.0262 39.8304 18.0542C39.2856 16.1515 37.8087 15.1529 36.3755 13.907C37.7651 11.499 39.0979 9.31167 41.0759 7.34243C42.1522 8.2825 43.3184 9.08563 44.4859 9.90736C45.6573 9.08563 46.7931 8.20406 47.9395 7.34642C47.3828 5.804 46.9623 4.27487 46.5736 2.68193C48.7579 1.49321 51.1524 0.755252 53.5086 0L54.126 0.200781C54.9392 1.63018 55.3266 3.2723 55.8012 4.84264C57.2134 4.94104 58.64 4.95699 60.0548 5.00752L61.1152 0.188803C63.6141 0.869593 66.1289 1.59825 68.4296 2.81357C68.0805 4.24961 67.3996 5.88643 67.5477 7.36635C67.6402 8.30111 67.9047 8.704 68.6094 9.29437C70.4473 9.68529 71.5685 8.80106 73.093 7.93146C74.476 10.0204 75.982 12.096 77.0556 14.3657C75.8405 15.5638 74.6042 16.339 73.8493 17.9199C73.8612 18.3361 73.7713 18.5542 74.0635 18.888C74.9612 19.9118 76.7779 19.8772 78.0406 20.0128C78.0142 22.2081 77.9402 24.3795 77.7656 26.5681C78.0406 26.5801 78.3143 26.6 78.5894 26.6306C80.6374 26.8527 82.6948 27.9457 83.935 29.625C84.9439 30.9906 85.1475 32.3349 85.2903 33.9784C85.6446 38.0471 85.4119 42.2808 85.404 46.3695L85.4212 67.2679L85.4304 82.8823C85.4304 85.6014 85.6777 88.6065 85.24 91.2924ZM75.7387 22.0233L72.1463 21.6829C72.0193 20.6285 71.8845 19.594 71.6888 18.5489C71.5169 17.6314 71.4772 16.5384 72.0669 15.7419C72.5866 15.0399 73.4632 14.4774 74.1428 13.9296C73.5795 12.9244 73.0335 11.9072 72.4147 10.9365L69.5244 12.4151C67.7791 11.5495 66.2189 10.6546 64.8107 9.26912C65.177 7.55916 65.645 5.80665 65.8433 4.0701C64.8173 3.6579 63.7953 3.22576 62.7587 2.84149C62.3699 4.32805 62.0394 5.86117 61.496 7.29854C59.0195 7.06718 56.6091 6.90761 54.1194 6.96213C53.6461 5.4955 53.1701 4.03022 52.7258 2.55562C51.5914 2.95186 50.4371 3.31753 49.3211 3.76297C49.6914 5.3599 50.1356 6.96347 50.2758 8.60029C48.4339 9.79832 46.571 10.9352 44.9856 12.475L44.8005 12.6518C43.559 11.9112 42.2963 11.1945 41.0825 10.41C40.5219 11.382 39.9335 12.3473 39.447 13.3592C40.5206 14.4362 41.6021 15.476 42.7472 16.4759C41.462 22.2055 41.3113 24.2252 43.1928 29.7926C41.9737 31.1355 40.7797 32.4785 39.4192 33.6792C40.2614 34.7256 41.0759 35.82 42.0213 36.7747C43.2456 35.9569 44.347 35.0674 45.4669 34.114C47.8654 35.6577 50.1621 37.264 52.9122 38.1203L52.3133 42.7209C54.1842 42.9616 56.0009 43.056 57.8877 43.0706C57.9168 41.608 57.9154 40.1347 57.9842 38.6734L62.0539 37.5725C63.3299 37.0978 64.6045 36.6217 65.8672 36.1112C66.8376 37.2228 67.7315 38.353 68.6015 39.547C69.65 38.6508 70.6614 37.7786 71.579 36.7401C70.6509 35.6245 69.7015 34.5368 68.9294 33.3029C70.1855 31.1036 71.3265 28.8831 72.1198 26.4684L75.5919 26.5681L75.7387 22.0233ZM66.3445 20.8279C66.8747 23.2413 66.3934 25.7849 65.0699 27.8619C63.4422 30.4188 61.1773 31.452 58.3623 32.1208C56.0326 32.1541 54.1617 32.0397 52.1136 30.7406C50.0312 29.4189 48.5688 27.2329 48.073 24.8143C47.5613 22.3211 48.0558 19.5993 49.4798 17.4865C51.2106 14.9189 53.732 13.8857 56.6435 13.3419C58.4787 13.2568 60.3602 13.7075 61.9429 14.6476C64.1919 15.9853 65.7825 18.2683 66.3445 20.8279ZM63.7569 19.574C62.8261 17.6939 61.1363 16.3576 59.161 15.7233C58.0397 15.363 56.8273 15.4388 55.6664 15.5119C53.3552 16.5052 51.6165 17.7364 50.6301 20.1684C49.8884 21.9967 49.8751 24.0643 50.6777 25.8753C51.4578 27.6358 52.9241 28.9934 54.7197 29.6636C56.2098 30.2194 57.5545 30.222 59.1014 29.992C61.406 28.9522 63.1527 27.7316 64.061 25.2424C64.7314 23.4022 64.6269 21.3305 63.7569 19.574ZM65.0699 27.8619C63.4422 30.4188 61.1773 31.452 58.3623 32.1208C56.0326 32.1541 54.1617 32.0397 52.1136 30.7406C50.0312 29.4189 48.5688 27.2329 48.073 24.8143C47.5613 22.3211 48.0558 19.5993 49.4798 17.4865C51.2106 14.9189 53.732 13.8857 56.6435 13.3419C58.4787 13.2568 60.3602 13.7075 61.9429 14.6476C64.1919 15.9853 65.7825 18.2683 66.3445 20.8279C66.8747 23.2413 66.3934 25.7849 65.0699 27.8619ZM63.7569 19.574C62.8261 17.6939 61.1363 16.3576 59.161 15.7233C58.0397 15.363 56.8273 15.4388 55.6664 15.5119C53.3552 16.5052 51.6165 17.7364 50.6301 20.1684C49.8884 21.9967 49.8751 24.0643 50.6777 25.8753C51.4578 27.6358 52.9241 28.9934 54.7197 29.6636C56.2098 30.2194 57.5545 30.222 59.1014 29.992C61.406 28.9522 63.1527 27.7316 64.061 25.2424C64.7314 23.4022 64.6269 21.3305 63.7569 19.574ZM65.0699 27.8619C63.4422 30.4188 61.1773 31.452 58.3623 32.1208C56.0326 32.1541 54.1617 32.0397 52.1136 30.7406C50.0312 29.4189 48.5688 27.2329 48.073 24.8143C47.5613 22.3211 48.0558 19.5993 49.4798 17.4865C51.2106 14.9189 53.732 13.8857 56.6435 13.3419C58.4787 13.2568 60.3602 13.7075 61.9429 14.6476C64.1919 15.9853 65.7825 18.2683 66.3445 20.8279C66.8747 23.2413 66.3934 25.7849 65.0699 27.8619ZM63.7569 19.574C62.8261 17.6939 61.1363 16.3576 59.161 15.7233C58.0397 15.363 56.8273 15.4388 55.6664 15.5119C53.3552 16.5052 51.6165 17.7364 50.6301 20.1684C49.8884 21.9967 49.8751 24.0643 50.6777 25.8753C51.4578 27.6358 52.9241 28.9934 54.7197 29.6636C56.2098 30.2194 57.5545 30.222 59.1014 29.992C61.406 28.9522 63.1527 27.7316 64.061 25.2424C64.7314 23.4022 64.6269 21.3305 63.7569 19.574ZM65.0699 27.8619C63.4422 30.4188 61.1773 31.452 58.3623 32.1208C56.0326 32.1541 54.1617 32.0397 52.1136 30.7406C50.0312 29.4189 48.5688 27.2329 48.073 24.8143C47.5613 22.3211 48.0558 19.5993 49.4798 17.4865C51.2106 14.9189 53.732 13.8857 56.6435 13.3419C58.4787 13.2568 60.3602 13.7075 61.9429 14.6476C64.1919 15.9853 65.7825 18.2683 66.3445 20.8279C66.8747 23.2413 66.3934 25.7849 65.0699 27.8619ZM63.7569 19.574C62.8261 17.6939 61.1363 16.3576 59.161 15.7233C58.0397 15.363 56.8273 15.4388 55.6664 15.5119C53.3552 16.5052 51.6165 17.7364 50.6301 20.1684C49.8884 21.9967 49.8751 24.0643 50.6777 25.8753C51.4578 27.6358 52.9241 28.9934 54.7197 29.6636C56.2098 30.2194 57.5545 30.222 59.1014 29.992C61.406 28.9522 63.1527 27.7316 64.061 25.2424C64.7314 23.4022 64.6269 21.3305 63.7569 19.574ZM65.0699 27.8619C63.4422 30.4188 61.1773 31.452 58.3623 32.1208C56.0326 32.1541 54.1617 32.0397 52.1136 30.7406C50.0312 29.4189 48.5688 27.2329 48.073 24.8143C47.5613 22.3211 48.0558 19.5993 49.4798 17.4865C51.2106 14.9189 53.732 13.8857 56.6435 13.3419C58.4787 13.2568 60.3602 13.7075 61.9429 14.6476C64.1919 15.9853 65.7825 18.2683 66.3445 20.8279C66.8747 23.2413 66.3934 25.7849 65.0699 27.8619ZM63.7569 19.574C62.8261 17.6939 61.1363 16.3576 59.161 15.7233C58.0397 15.363 56.8273 15.4388 55.6664 15.5119C53.3552 16.5052 51.6165 17.7364 50.6301 20.1684C49.8884 21.9967 49.8751 24.0643 50.6777 25.8753C51.4578 27.6358 52.9241 28.9934 54.7197 29.6636C56.2098 30.2194 57.5545 30.222 59.1014 29.992C61.406 28.9522 63.1527 27.7316 64.061 25.2424C64.7314 23.4022 64.6269 21.3305 63.7569 19.574Z" fill="#0060D0"/>
</svg>
