<svg width="86" height="84" viewBox="0 0 86 84" fill="none" xmlns="http://www.w3.org/2000/svg">
<path d="M27.7173 46.3719C27.1524 46.4791 26.9414 46.4268 26.4219 46.1914C24.9316 44.2656 25.7355 41.0167 26.0453 38.7889L27.4008 39.1209C28.3316 40.3499 27.6438 44.5977 27.7173 46.3719ZM37.5247 57.8549C36.2614 57.0077 34.6348 56.6835 33.4196 55.7421C31.9092 54.5733 30.9103 52.5887 29.4426 51.5035C29.0567 51.2185 28.3222 51.2486 27.8682 51.2407C28.3409 53.8895 30.7727 56.2926 32.9615 57.8105C34.2556 58.7074 36.2961 59.9638 37.9694 59.6565C38.1123 59.6304 38.2538 59.5951 38.3954 59.565C38.2351 58.7636 38.2832 58.3635 37.5247 57.8549ZM29.9461 33.6716C31.5566 32.0517 33.1298 30.3521 35.0581 29.0904C36.7154 28.0039 40.1394 27.9216 41.0636 26.2206C40.8259 25.6231 40.7765 25.6349 40.2049 25.3054L39.7108 25.3264C35.9716 26.1383 30.917 28.5243 28.8671 31.8229C28.6628 32.1524 28.608 32.4636 28.5693 32.8401L28.9365 33.5526C29.3252 33.6507 29.5415 33.7161 29.9461 33.6716ZM49.8213 46.2281C48.7797 48.5631 46.9835 49.5973 44.6452 50.4589C43.267 50.6027 41.8848 50.6837 40.5561 50.2183C38.6905 49.5672 37.1761 48.2755 36.3415 46.5079C35.4628 44.6461 35.3893 42.4052 36.1946 40.5055C37.2122 38.1038 39.0845 36.897 41.4161 35.9021C42.8571 35.7426 44.0896 35.689 45.4758 36.1727C47.4469 36.863 48.9947 38.3221 49.8013 40.21C50.6119 42.1123 50.6693 44.3271 49.8213 46.2281ZM48.1267 41.3972C47.6806 40.0139 46.6337 38.9065 45.2902 38.3077C44.4382 37.9286 43.474 37.8632 42.5512 37.8109C40.7137 38.2973 39.202 39.0373 38.2578 40.7395C37.5527 42.0116 37.4192 43.4772 37.8585 44.8566C38.2912 46.2215 39.2968 47.41 40.5975 48.065C41.4361 48.4873 42.435 48.6076 43.3645 48.6912C45.2381 48.1997 46.5348 47.6244 47.5524 45.9326C48.3724 44.5702 48.6168 42.9138 48.1267 41.3972ZM49.9575 28.8747C51.09 29.5559 52.3867 30.1952 53.3295 31.1221C54.5114 32.2844 55.3914 34.256 56.7762 35.1085C57.1836 34.307 57.4493 33.9802 57.1395 33.0597C56.1406 30.105 51.6135 27.3869 48.8117 26.2076C48.6635 26.1448 48.5099 26.0938 48.359 26.0376L47.6793 27.0548C47.8996 27.8706 49.207 28.4223 49.9575 28.8747ZM59.6755 41.3553L58.6378 41.0768C58.3654 46.3013 57.8179 50.804 53.6273 54.6021C50.9551 57.0234 48.1534 57.9464 44.6692 58.6132C44.2579 58.6917 44.3874 58.6734 43.9721 58.961L43.693 59.7951C43.9695 60.2292 43.8693 60.2763 44.4235 60.4018C45.2715 60.5927 46.2464 60.3168 47.0797 60.1351C51.4452 59.0447 55.2418 56.707 57.6563 52.9037C58.0369 52.3036 58.324 51.6656 58.5937 51.0132C58.4335 50.5556 58.2786 50.098 58.133 49.6365L58.3414 49.4116L58.953 49.5188C60.2083 48.1748 60.5435 45.3351 60.4861 43.5818C60.458 42.6967 60.3125 42.0221 59.6755 41.3553ZM85.6803 43.4066C84.1726 48.4297 78.8683 51.2146 74.5081 53.5313C75.8756 57.6771 77.4046 62.9565 76.2361 67.3063C75.6726 69.4034 74.4239 71.2363 72.4422 72.2692C67.4022 74.8958 61.0136 72.0038 56.0418 70.6362C53.5565 75.6463 50.6333 81.3257 45.0138 83.3666C43.4887 83.6307 41.9035 83.5104 40.4613 82.9364C35.5883 80.9989 33.2259 75.4933 31.387 71.0742C26.4139 72.1241 20.2175 73.91 15.1976 72.5542C13.081 71.9829 11.2795 70.7291 10.2018 68.8359C7.67783 64.3999 9.73838 58.0445 11.011 53.4999C7.77129 51.3584 3.83578 49.2168 1.5976 45.9901C0.248814 44.0486 -0.353449 41.7188 0.211438 39.406C1.44938 34.3358 7.31059 31.4333 11.4357 28.8433C10.3353 24.7014 8.90641 19.9934 9.95339 15.7011C10.3994 13.8694 11.4277 12.2757 13.101 11.2991C17.7456 8.58748 25.1105 10.6859 30.0196 11.8011C33.1284 7.54414 36.005 2.72371 41.1357 0.644917C42.4711 0.524635 43.8186 0.392581 45.1487 0.639683C50.3742 1.61109 53.5111 6.69826 56.174 10.7343C59.8664 9.85567 63.9835 8.59662 67.8029 9.28824C70.3762 9.75368 72.6839 11.1396 74.1048 13.3151C77.1362 17.9564 75.5056 23.8385 74.3425 28.7975C78.0924 30.8986 82.4485 33.1173 84.7281 36.8813C85.9327 38.8686 86.352 41.167 85.6803 43.4066ZM57.4266 12.4496C58.5283 15.0318 59.3856 17.6387 60.2203 20.3111C62.6334 22.3428 64.8048 24.2817 67.7842 25.5042C69.4748 26.2062 71.1802 26.8887 72.8401 27.6614C73.5946 23.2136 74.8566 17.895 71.9961 13.8956C70.8704 12.3254 69.0462 11.3213 67.1085 11.0467C66.5983 10.9735 66.0388 10.9722 65.522 11.0062C62.8017 11.3239 60.0774 11.7632 57.4266 12.4496ZM14.3416 48.8141C14.0251 50.098 13.7046 51.3649 13.5203 52.6749C14.4685 53.4006 15.4046 54.1746 16.4222 54.8021C16.4543 53.6254 15.0895 49.8823 14.3416 48.8141ZM14.8584 33.5618C16.3007 32.1524 17.3931 29.463 18.3372 27.6732C18.0448 27.4065 18.193 27.4535 17.9513 27.413C16.4463 28.0733 14.9239 28.689 13.5283 29.5545C13.9263 30.9025 14.2815 32.274 14.8584 33.5618ZM26.1161 63.4049C31.8651 67.7966 38.4755 69.1902 45.6187 68.9471C52.6551 68.0044 59.5366 65.1046 63.9702 59.4565C67.9965 54.3249 70.5726 46.5471 69.6645 40.0714C68.691 33.1225 64.4403 26.1226 58.7366 21.8957C53.7942 18.2336 47.2226 16.0908 40.9995 16.7013C33.7895 17.4662 26.2256 20.7465 21.5983 26.3827C17.2582 31.6699 15.0587 38.7915 15.8199 45.539C16.5758 52.2461 20.6916 59.263 26.1161 63.4049ZM69.6685 54.4517L69.9289 54.3288C70.7141 53.9928 71.8573 53.6607 72.2312 52.8423C72.9216 51.327 71.8773 49.2024 71.3832 47.7224C71.0386 48.8808 69.2745 53.7405 69.6685 54.4517ZM72.3113 30.0645C70.5525 29.0211 68.751 28.017 66.816 27.3202C67.6627 28.8839 69.6511 33.9383 70.8116 34.9241L71.1855 34.4456C71.5768 32.9892 71.9894 31.5366 72.3113 30.0645ZM54.6008 12.8091C52.7379 13.421 51.2075 14.1558 49.7359 15.4697C51.2275 15.9796 52.7285 16.4751 54.2122 17.0046C55.3153 17.5067 56.4317 17.9813 57.4773 18.5919C56.8657 16.5758 56.198 14.3009 54.6008 12.8091ZM32.6357 11.6834C34.9366 12.2273 36.9838 13.017 38.5837 14.8199C40.4453 14.7454 42.3149 14.6356 44.1791 14.6683L47.1732 14.799C49.1469 12.902 50.9965 11.907 53.6433 11.0703C51.6709 7.77427 48.984 3.61536 44.935 2.62695C43.9654 2.39031 42.9478 2.47269 41.961 2.53806C37.7049 4.32922 35.2785 8.14557 32.6357 11.6834ZM28.2007 18.3866C29.4293 17.8636 30.6659 17.3537 31.8825 16.802C32.9976 16.3901 34.3277 16.0803 35.1076 15.1599L35.0675 14.6526C34.0352 13.9152 32.4674 13.9152 31.2295 13.8629C29.9114 15.2697 28.9032 16.5732 28.2007 18.3866ZM11.8978 21.3662C12.1609 23.2829 12.6336 25.2165 13.3254 27.0273L19.5338 24.4661C24.9903 21.374 25.4778 18.3421 28.6708 13.6759C25.3001 12.8052 22.007 12.2038 18.5135 12.0979C16.3915 12.2835 14.5726 12.4156 13.121 14.1597C11.4865 16.1195 11.5733 18.9906 11.8978 21.3662ZM11.6988 51.3414C12.2143 49.4744 13.081 47.5577 13.4709 45.6894C14.4485 40.9892 13.7273 36.1348 12.1555 31.687L11.6213 31.1993C8.18395 33.431 3.21614 35.9178 2.4309 40.2676C2.09171 42.1476 2.65659 43.9113 3.79972 45.4266C4.84136 46.8073 6.31168 47.7826 7.7259 48.7658L11.6988 51.3414ZM32.3846 69.0948C26.1869 66.5271 22.3262 63.3971 18.5001 58.0066C16.6239 57.077 14.7463 56.1514 12.894 55.176C11.835 58.7989 10.0135 64.2365 12.0006 67.8188C12.8299 69.3119 14.2748 70.1865 15.9187 70.618C19.7581 71.6247 24.332 70.3303 28.1152 69.5354C29.5375 69.3524 30.949 69.1746 32.3846 69.0948ZM53.4911 69.908C53.1626 69.5576 53.3308 69.6204 53.0838 69.5563C49.7452 70.4257 46.4601 71.0899 42.9879 71.0612C40.2156 71.0376 37.3311 70.4885 34.6081 71.0677C34.4385 71.103 34.2676 71.1331 34.098 71.1697C33.9965 71.1906 33.8963 71.2181 33.7948 71.2416C34.8899 73.7989 36.1559 76.0542 37.8251 78.2964C39.2687 79.8941 40.6736 81.4094 43.02 81.4748C44.9617 81.5284 46.7258 80.4249 48.0706 79.1436C50.2299 77.0857 53.0637 72.8262 53.4911 69.908ZM73.0298 55.6611C72.9376 55.5068 72.8241 55.3656 72.7226 55.2166C66.7479 58.1151 67.214 59.3676 62.8725 63.4416C60.7852 65.3988 58.4549 66.8578 55.9737 68.2894C57.2784 68.649 58.5857 68.9954 59.8744 69.4034C63.2651 70.5657 67.5785 72.1699 71.068 70.5016C72.6118 69.7642 73.6534 68.462 74.1515 66.867C74.91 64.4365 74.3211 57.834 73.0298 55.6611ZM84.1085 41.2141C83.2738 37.5939 81.2106 35.2706 78.0536 33.2964C76.8357 32.5355 75.539 31.8465 74.2557 31.1954C73.6107 33.5383 72.6665 35.94 72.2245 38.3169C71.4726 42.3607 73.2728 47.2178 74.3946 51.106C76.1026 50.353 77.6236 49.4757 79.1887 48.469C81.6847 46.4451 83.3606 44.3728 84.1085 41.2141ZM27.4008 39.1209L26.0453 38.7889C25.7355 41.0167 24.9316 44.2656 26.4219 46.1914C26.9414 46.4268 27.1524 46.4791 27.7173 46.3719C27.6438 44.5977 28.3316 40.3499 27.4008 39.1209ZM37.5247 57.8549C36.2614 57.0077 34.6348 56.6835 33.4196 55.7421C31.9092 54.5733 30.9103 52.5887 29.4426 51.5035C29.0567 51.2185 28.3222 51.2486 27.8682 51.2407C28.3409 53.8895 30.7727 56.2926 32.9615 57.8105C34.2556 58.7074 36.2961 59.9638 37.9694 59.6565C38.1123 59.6304 38.2538 59.5951 38.3954 59.565C38.2351 58.7636 38.2832 58.3635 37.5247 57.8549ZM29.9461 33.6716C31.5566 32.0517 33.1298 30.3521 35.0581 29.0904C36.7154 28.0039 40.1394 27.9216 41.0636 26.2206C40.8259 25.6231 40.7765 25.6349 40.2049 25.3054L39.7108 25.3264C35.9716 26.1383 30.917 28.5243 28.8671 31.8229C28.6628 32.1524 28.608 32.4636 28.5693 32.8401L28.9365 33.5526C29.3252 33.6507 29.5415 33.7161 29.9461 33.6716ZM49.8213 46.2281C48.7797 48.5631 46.9835 49.5973 44.6452 50.4589C43.267 50.6027 41.8848 50.6837 40.5561 50.2183C38.6905 49.5672 37.1761 48.2755 36.3415 46.5079C35.4628 44.6461 35.3893 42.4052 36.1946 40.5055C37.2122 38.1038 39.0845 36.897 41.4161 35.9021C42.8571 35.7426 44.0896 35.689 45.4758 36.1727C47.4469 36.863 48.9947 38.3221 49.8013 40.21C50.6119 42.1123 50.6693 44.3271 49.8213 46.2281ZM48.1267 41.3972C47.6806 40.0139 46.6337 38.9065 45.2902 38.3077C44.4382 37.9286 43.474 37.8632 42.5512 37.8109C40.7137 38.2973 39.202 39.0373 38.2578 40.7395C37.5527 42.0116 37.4192 43.4772 37.8585 44.8566C38.2912 46.2215 39.2968 47.41 40.5975 48.065C41.4361 48.4873 42.435 48.6076 43.3645 48.6912C45.2381 48.1997 46.5348 47.6244 47.5524 45.9326C48.3724 44.5702 48.6168 42.9138 48.1267 41.3972ZM49.9575 28.8747C51.09 29.5559 52.3867 30.1952 53.3295 31.1221C54.5114 32.2844 55.3914 34.256 56.7762 35.1085C57.1836 34.307 57.4493 33.9802 57.1395 33.0597C56.1406 30.105 51.6135 27.3869 48.8117 26.2076C48.6635 26.1448 48.5099 26.0938 48.359 26.0376L47.6793 27.0548C47.8996 27.8706 49.207 28.4223 49.9575 28.8747ZM58.953 49.5188C60.2083 48.1748 60.5435 45.3351 60.4861 43.5818C60.458 42.6967 60.3125 42.0221 59.6755 41.3553L58.6378 41.0768C58.3654 46.3013 57.8179 50.804 53.6273 54.6021C50.9551 57.0234 48.1534 57.9464 44.6692 58.6132C44.2579 58.6917 44.3874 58.6734 43.9721 58.961L43.693 59.7951C43.9695 60.2292 43.8693 60.2763 44.4235 60.4018C45.2715 60.5927 46.2464 60.3168 47.0797 60.1351C51.4452 59.0447 55.2418 56.707 57.6563 52.9037C58.0369 52.3036 58.324 51.6656 58.5937 51.0132C58.4335 50.5556 58.2786 50.098 58.133 49.6365L58.3414 49.4116L58.953 49.5188ZM27.4008 39.1209L26.0453 38.7889C25.7355 41.0167 24.9316 44.2656 26.4219 46.1914C26.9414 46.4268 27.1524 46.4791 27.7173 46.3719C27.6438 44.5977 28.3316 40.3499 27.4008 39.1209ZM57.1395 33.0597C56.1406 30.105 51.6135 27.3869 48.8117 26.2076C48.6635 26.1448 48.5099 26.0938 48.359 26.0376L47.6793 27.0548C47.8996 27.8706 49.207 28.4223 49.9575 28.8747C51.09 29.5559 52.3867 30.1952 53.3295 31.1221C54.5114 32.2844 55.3914 34.256 56.7762 35.1085C57.1836 34.307 57.4493 33.9802 57.1395 33.0597ZM37.5247 57.8549C36.2614 57.0077 34.6348 56.6835 33.4196 55.7421C31.9092 54.5733 30.9103 52.5887 29.4426 51.5035C29.0567 51.2185 28.3222 51.2486 27.8682 51.2407C28.3409 53.8895 30.7727 56.2926 32.9615 57.8105C34.2556 58.7074 36.2961 59.9638 37.9694 59.6565C38.1123 59.6304 38.2538 59.5951 38.3954 59.565C38.2351 58.7636 38.2832 58.3635 37.5247 57.8549ZM40.2049 25.3054L39.7108 25.3264C35.9716 26.1383 30.917 28.5243 28.8671 31.8229C28.6628 32.1524 28.608 32.4636 28.5693 32.8401L28.9365 33.5526C29.3252 33.6507 29.5415 33.7161 29.9461 33.6716C31.5566 32.0517 33.1298 30.3521 35.0581 29.0904C36.7154 28.0039 40.1394 27.9216 41.0636 26.2206C40.8259 25.6231 40.7765 25.6349 40.2049 25.3054ZM58.953 49.5188C60.2083 48.1748 60.5435 45.3351 60.4861 43.5818C60.458 42.6967 60.3125 42.0221 59.6755 41.3553L58.6378 41.0768C58.3654 46.3013 57.8179 50.804 53.6273 54.6021C50.9551 57.0234 48.1534 57.9464 44.6692 58.6132C44.2579 58.6917 44.3874 58.6734 43.9721 58.961L43.693 59.7951C43.9695 60.2292 43.8693 60.2763 44.4235 60.4018C45.2715 60.5927 46.2464 60.3168 47.0797 60.1351C51.4452 59.0447 55.2418 56.707 57.6563 52.9037C58.0369 52.3036 58.324 51.6656 58.5937 51.0132C58.4335 50.5556 58.2786 50.098 58.133 49.6365L58.3414 49.4116L58.953 49.5188ZM49.8213 46.2281C48.7797 48.5631 46.9835 49.5973 44.6452 50.4589C43.267 50.6027 41.8848 50.6837 40.5561 50.2183C38.6905 49.5672 37.1761 48.2755 36.3415 46.5079C35.4628 44.6461 35.3893 42.4052 36.1946 40.5055C37.2122 38.1038 39.0845 36.897 41.4161 35.9021C42.8571 35.7426 44.0896 35.689 45.4758 36.1727C47.4469 36.863 48.9947 38.3221 49.8013 40.21C50.6119 42.1123 50.6693 44.3271 49.8213 46.2281ZM48.1267 41.3972C47.6806 40.0139 46.6337 38.9065 45.2902 38.3077C44.4382 37.9286 43.474 37.8632 42.5512 37.8109C40.7137 38.2973 39.202 39.0373 38.2578 40.7395C37.5527 42.0116 37.4192 43.4772 37.8585 44.8566C38.2912 46.2215 39.2968 47.41 40.5975 48.065C41.4361 48.4873 42.435 48.6076 43.3645 48.6912C45.2381 48.1997 46.5348 47.6244 47.5524 45.9326C48.3724 44.5702 48.6168 42.9138 48.1267 41.3972Z" fill="#0060D0"/>
</svg>
