<svg width="80" height="96" viewBox="0 0 80 96" fill="none" xmlns="http://www.w3.org/2000/svg">
<path d="M60.2252 84.2168C60.498 84.9031 60.416 85.0175 60.2413 85.7489C56.4119 86.0561 51.4122 86.4498 47.6661 85.7715C47.0037 85.1012 47.1031 84.7422 46.9956 83.8325C50.0054 83.6729 57.816 83.0798 60.2252 84.2168ZM79.5522 95.2658C68.1782 95.6116 56.6618 95.2924 45.2758 95.2937L15.5221 95.3283C10.916 95.331 5.66376 95.8244 1.12895 95.1262C0.744668 95.0676 0.829311 95.1208 0.551176 94.6421C-1.16869 91.6897 1.6046 75.8703 2.50081 72.604C4.81188 64.1657 9.84385 54.7525 19.1768 52.606C22.7361 51.7868 26.2941 51.6192 29.5202 49.76L29.848 49.5672L30.8329 46.6254C27.8621 44.0613 25.8802 41.2366 23.8581 37.9304C21.6706 37.2122 19.7331 36.5034 18.0105 34.9048C16.4747 33.4818 15.4549 31.4617 15.4347 29.3591C15.4065 26.4492 17.0041 24.3958 19.0062 22.4834C18.5923 16.9629 19.1996 11.8986 22.8248 7.44602C26.3008 3.17566 31.0116 1.23664 36.4091 0.64217C37.8468 0.48923 39.2737 0.473267 40.7181 0.530453C46.3937 0.756539 51.9013 2.93096 55.7482 7.14946C59.7119 11.4956 60.6444 16.8632 60.3716 22.53C62.4382 24.2828 63.9498 25.9691 64.2131 28.7726C64.4254 31.0361 63.6757 33.3595 62.1157 35.0365C60.1687 37.1285 58.0243 37.4929 55.3142 37.5567C53.3471 41.2193 51.0293 44.2941 48.1633 47.3183L49.2328 49.6669C58.242 54.1594 64.3744 50.1736 71.6892 59.8873C78.3066 68.6728 81.1847 84.4974 79.5522 95.2658ZM43.0924 57.7847C44.1512 58.7742 45.1898 59.8262 46.3399 60.7105L46.9311 60.9074C48.6913 59.9498 50.5106 55.1994 51.2846 53.376C50.4502 52.7616 49.6278 52.118 48.7545 51.5594C47.2482 53.9759 45.5606 56.242 43.0924 57.7847ZM34.0966 63.0379C34.1087 63.8093 34.1047 63.8385 34.579 64.4476L34.8665 64.4769C35.0667 63.5739 35.013 62.8291 35.7641 62.2506L36.5528 62.4634L39.0453 63.53C40.5233 62.7573 41.918 62.0697 43.5116 61.5564C42.1155 60.2903 40.9842 59.0495 39.0601 58.6745C37.3819 59.9006 35.0708 61.164 34.0966 63.0379ZM42.9567 55.6728C43.6876 55.2087 44.2143 54.6249 44.7423 53.9532C45.6641 52.4558 46.6973 50.8745 46.7618 49.0698L46.473 48.454C45.5687 48.2612 44.7316 48.6681 43.8515 48.9035C39.6875 50.0193 36.4131 49.5472 32.4937 47.8303C32.0395 49.5007 31.7412 50.5234 32.628 52.11C33.8051 54.2152 35.7896 55.7593 38.1504 56.3551C39.7521 56.7594 41.5525 56.5652 42.9567 55.6728ZM58.5201 24.6405C57.9746 24.5288 57.3968 24.5208 56.8419 24.4996L56.7008 24.4929C56.5731 26.005 56.3461 26.9267 57.4143 28.1914C57.597 28.4069 57.7851 28.617 57.9692 28.8311C58.2487 29.1529 58.4233 29.399 58.598 29.782C58.1801 30.5879 57.5621 30.7156 56.7438 31.0468C56.6255 31.9976 56.5167 32.9246 56.287 33.8555C56.1499 34.4114 56.1459 34.6747 56.385 35.22C57.1402 35.5126 57.6091 35.2972 58.3951 35.1442C60.119 34.1042 61.2719 32.7743 61.8053 30.806C62.1896 29.3843 62.0928 27.8111 61.2732 26.553C60.6659 25.622 59.6272 24.8666 58.5201 24.6405ZM23.0599 35.3238C22.9941 34.2851 22.5628 30.9377 21.9864 30.1424L20.8859 29.9416C20.6763 29.3777 20.6709 29.3218 20.9625 28.7526C21.6101 27.4906 22.6891 26.6713 23.0129 25.2337C22.9041 24.8653 22.9457 24.6126 22.5682 24.4251C22.0132 24.1498 21.4274 24.2349 20.8281 24.2642C19.2278 25.481 17.9111 26.7631 17.6692 28.8484C17.4986 30.3246 18.0387 31.7343 18.9726 32.8714C19.983 34.1002 21.246 34.7692 22.6676 35.4408L23.0599 35.3238ZM27.9078 17.822C30.8544 15.6303 34.6045 15.1409 37.0553 12.1739C36.7208 10.6126 36.0113 8.23866 36.8713 6.76511C38.622 7.68408 39.1998 11.6326 40.3715 13.3575C45.1374 18.1971 53.9047 18.8142 54.4421 19.4246C55.122 20.1973 54.9823 21.1867 55.4606 21.9807C55.599 22.2108 56.0182 22.498 56.2937 22.494C56.854 22.4874 57.7596 22.1097 58.0942 21.6522C58.9474 20.4819 58.3763 18.4897 58.0754 17.1837C57.0193 12.5729 55.036 8.623 50.8949 5.99641C50.8317 5.95518 50.7659 5.91796 50.7014 5.87806C50.7068 7.54445 51.1018 10.3665 49.9852 11.7151C49.2395 11.8667 49.2436 11.8068 48.5664 11.4371C48.131 9.1696 48.522 6.74782 48.3003 4.43775C45.2624 2.84451 41.4746 2.44288 38.0685 2.57853C32.6885 3.09587 28.0597 4.55478 24.5474 8.89164C22.3398 11.618 20.5648 16.1756 20.9155 19.7198C20.9894 20.4752 21.2191 21.3423 21.8332 21.8464C22.333 22.2573 22.8718 22.3251 23.4818 22.1735C24.8429 21.8344 26.6502 18.7583 27.9078 17.822ZM45.05 19.2038C42.5213 18.0614 40.5838 16.3831 38.4769 14.6555C34.7187 16.9855 30.0603 18.4617 27.0694 21.7852L41.9301 21.8464C44.3446 21.8677 50.2446 22.4196 52.2601 21.3902C51.0817 20.4473 46.9043 20.0403 45.05 19.2038ZM35.8595 46.7464C38.7833 47.8103 41.7836 47.6614 44.5892 46.3222C46.2405 45.5335 47.7118 44.3911 49.0124 43.1224C53.3242 37.9384 55.1355 32.4964 54.4394 25.7696C54.387 25.2496 54.3131 24.7323 54.2325 24.2163C44.7356 23.7694 35.142 24.0687 25.6303 24.0075C23.9346 28.6556 24.4157 33.3289 26.4889 37.7934C28.3432 41.7818 31.6418 45.2143 35.8595 46.7464ZM27.5907 53.3814C28.5783 55.734 30.0872 59.2197 32.1027 60.8329C32.6966 60.7664 32.757 60.7411 33.2179 60.4246L35.885 57.9098C34.1463 56.7993 32.835 55.5465 31.4832 54.0051C31.1352 53.6088 30.6367 52.8348 30.235 52.5409C30.0643 52.4172 29.8252 52.4385 29.6196 52.3879C28.9129 52.6419 28.0328 52.7723 27.5907 53.3814ZM21.3038 54.5876C22.0629 59.6306 33.3859 71.1837 37.5162 75.0085L38.313 75.4101L38.6664 75.2572C38.8881 74.0616 37.7043 72.6 37.0446 71.6505C34.9942 68.7007 32.6912 65.9251 30.626 62.9834C28.7798 60.3555 27.0116 55.7141 24.4815 53.8548L23.678 53.8814C22.8866 54.0184 21.9245 54.0463 21.3038 54.5876ZM38.6946 93.1007L38.6839 78.6578C33.0903 74.5763 27.8836 68.8364 23.7412 63.3292C22.4446 61.6056 19.8715 55.7473 18.6541 54.8829C11.9493 57.9762 8.26909 62.6443 5.7726 69.4747C3.0235 76.9981 2.36778 85.1252 2.46453 93.0714C6.41888 93.1818 10.3638 93.1645 14.3182 93.1193C14.345 89.7706 13.7498 72.9671 15.1996 71.5534C15.4845 71.2741 15.7183 71.3964 16.0837 71.4164C17.035 72.6506 16.6091 76.2413 16.597 77.8785L16.5836 93.0887L38.6946 93.1007ZM39.9831 72.076L43.4444 66.755C42.1545 65.7124 41.1642 64.8306 39.4578 64.6444L39.1998 64.7482C39.0426 64.7974 38.8867 64.8519 38.7295 64.8998C38.1598 65.0727 37.8011 65.0142 37.2246 64.8679C36.5474 65.1764 36.5689 65.1777 36.2532 65.8494C36.5542 67.8841 38.5858 70.5293 39.9831 72.076ZM40.5824 75.6695L43.607 73.1054C49.4223 67.3788 54.3454 61.5723 58.2191 54.3695L53.511 53.5503C51.4108 58.9936 48.1055 63.7175 44.87 68.5371C43.3409 70.8166 41.6278 73.1253 40.5824 75.6695ZM77.6845 93.0448C77.6751 81.7725 76.5464 67.263 67.9014 58.8593C65.808 56.8245 63.4056 55.5252 60.553 54.8243C55.3545 64.2109 48.9426 71.3446 40.7746 78.3014C40.7558 83.2287 40.6886 88.1601 40.7947 93.0861C48.342 93.2124 55.9255 93.2377 63.4714 93.0861L63.466 73.6613C63.4378 72.1026 63.0428 69.3351 64.1392 68.0969C64.8675 68.0012 64.8084 68.1275 65.3821 68.5185C66.1627 70.8831 65.6683 89.0378 65.6696 93.0794L77.6845 93.0448ZM60.2252 84.2168C57.816 83.0798 50.0054 83.6729 46.9956 83.8325C47.1031 84.7422 47.0037 85.1012 47.6661 85.7715C51.4122 86.4498 56.4119 86.0561 60.2413 85.7489C60.416 85.0175 60.498 84.9031 60.2252 84.2168ZM60.2252 84.2168C57.816 83.0798 50.0054 83.6729 46.9956 83.8325C47.1031 84.7422 47.0037 85.1012 47.6661 85.7715C51.4122 86.4498 56.4119 86.0561 60.2413 85.7489C60.416 85.0175 60.498 84.9031 60.2252 84.2168Z" fill="#0060D0"/>
</svg>
